<svg width="452" height="102" viewBox="0 0 452 102" fill="none" xmlns="http://www.w3.org/2000/svg">
<mask id="path-1-outside-1_1_323" maskUnits="userSpaceOnUse" x="53" y="40" width="343" height="62" fill="black">
<rect fill="white" x="53" y="40" width="343" height="62"/>
<path d="M66.8014 88V48.32H54.5254V41.81H86.1454V48.32H74.0554V88H66.8014ZM101.082 88.744C97.7341 88.744 94.7581 87.9793 92.1541 86.45C89.5915 84.8793 87.5868 82.7713 86.1401 80.126C84.6935 77.4393 83.9701 74.4427 83.9701 71.136C83.9701 67.7467 84.6935 64.75 86.1401 62.146C87.6281 59.542 89.6121 57.496 92.0921 56.008C94.5721 54.4787 97.3828 53.714 100.524 53.714C103.045 53.714 105.298 54.148 107.282 55.016C109.266 55.884 110.94 57.0827 112.304 58.612C113.668 60.1 114.701 61.8153 115.404 63.758C116.148 65.7007 116.52 67.7673 116.52 69.958C116.52 70.4953 116.499 71.0533 116.458 71.632C116.417 72.2107 116.334 72.748 116.21 73.244H89.4881V67.664H112.242L108.894 70.206C109.307 68.1807 109.163 66.3827 108.46 64.812C107.799 63.2 106.765 61.9393 105.36 61.03C103.996 60.0793 102.384 59.604 100.524 59.604C98.6641 59.604 97.0108 60.0793 95.5641 61.03C94.1175 61.9393 93.0015 63.262 92.2161 64.998C91.4308 66.6927 91.1208 68.7593 91.2861 71.198C91.0795 73.4713 91.3895 75.4553 92.2161 77.15C93.0841 78.8447 94.2828 80.1673 95.8121 81.118C97.3828 82.0687 99.1601 82.544 101.144 82.544C103.169 82.544 104.885 82.0893 106.29 81.18C107.737 80.2707 108.873 79.0927 109.7 77.646L115.404 80.436C114.743 82.0067 113.709 83.4327 112.304 84.714C110.94 85.954 109.287 86.946 107.344 87.69C105.443 88.3927 103.355 88.744 101.082 88.744ZM122.118 88V54.458H128.814V61.712L127.946 60.596C128.648 58.3227 129.93 56.6073 131.79 55.45C133.65 54.2927 135.778 53.714 138.176 53.714C140.862 53.714 143.239 54.4373 145.306 55.884C147.414 57.2893 148.819 59.17 149.522 61.526L147.538 61.712C148.53 59.0253 150.038 57.0207 152.064 55.698C154.13 54.3753 156.486 53.714 159.132 53.714C161.446 53.714 163.534 54.2513 165.394 55.326C167.295 56.4007 168.804 57.8887 169.92 59.79C171.036 61.6913 171.594 63.8613 171.594 66.3V88H164.588V68.222C164.588 66.5273 164.278 65.1013 163.658 63.944C163.079 62.7453 162.252 61.836 161.178 61.216C160.144 60.5547 158.925 60.224 157.52 60.224C156.114 60.224 154.874 60.5547 153.8 61.216C152.725 61.836 151.878 62.7453 151.258 63.944C150.638 65.1427 150.328 66.5687 150.328 68.222V88H143.384V68.222C143.384 66.5273 143.074 65.1013 142.454 63.944C141.875 62.7453 141.048 61.836 139.974 61.216C138.94 60.5547 137.7 60.224 136.254 60.224C134.848 60.224 133.608 60.5547 132.534 61.216C131.459 61.836 130.612 62.7453 129.992 63.944C129.413 65.1427 129.124 66.5687 129.124 68.222V88H122.118ZM177.852 100.4V54.458H184.548V61.402L183.742 59.79C184.982 57.8887 186.635 56.4007 188.702 55.326C190.769 54.2513 193.125 53.714 195.77 53.714C198.953 53.714 201.805 54.4787 204.326 56.008C206.889 57.5373 208.893 59.6247 210.34 62.27C211.828 64.9153 212.572 67.8913 212.572 71.198C212.572 74.5047 211.828 77.4807 210.34 80.126C208.893 82.7713 206.909 84.8793 204.388 86.45C201.867 87.9793 198.994 88.744 195.77 88.744C193.166 88.744 190.789 88.2067 188.64 87.132C186.532 86.0573 184.899 84.5073 183.742 82.482L184.858 81.18V100.4H177.852ZM195.088 82.234C197.072 82.234 198.829 81.7587 200.358 80.808C201.887 79.8573 203.086 78.5553 203.954 76.902C204.863 75.2073 205.318 73.306 205.318 71.198C205.318 69.09 204.863 67.2093 203.954 65.556C203.086 63.9027 201.887 62.6007 200.358 61.65C198.829 60.6993 197.072 60.224 195.088 60.224C193.145 60.224 191.389 60.6993 189.818 61.65C188.289 62.6007 187.069 63.9027 186.16 65.556C185.292 67.2093 184.858 69.09 184.858 71.198C184.858 73.306 185.292 75.2073 186.16 76.902C187.069 78.5553 188.289 79.8573 189.818 80.808C191.389 81.7587 193.145 82.234 195.088 82.234ZM218.147 88V41.066H225.153V88H218.147ZM242.149 88.744C239.875 88.744 237.871 88.3513 236.135 87.566C234.44 86.7393 233.117 85.6233 232.167 84.218C231.216 82.7713 230.741 81.0767 230.741 79.134C230.741 77.3153 231.133 75.6827 231.919 74.236C232.745 72.7893 234.006 71.57 235.701 70.578C237.395 69.586 239.524 68.8833 242.087 68.47L253.743 66.548V72.066L243.451 73.864C241.591 74.1947 240.227 74.794 239.359 75.662C238.491 76.4887 238.057 77.5633 238.057 78.886C238.057 80.1673 238.532 81.2213 239.483 82.048C240.475 82.8333 241.735 83.226 243.265 83.226C245.166 83.226 246.819 82.8127 248.225 81.986C249.671 81.1593 250.787 80.064 251.573 78.7C252.358 77.2947 252.751 75.7447 252.751 74.05V65.432C252.751 63.7787 252.131 62.4353 250.891 61.402C249.692 60.3273 248.08 59.79 246.055 59.79C244.195 59.79 242.562 60.286 241.157 61.278C239.793 62.2287 238.78 63.4687 238.119 64.998L232.291 62.084C232.911 60.4307 233.923 58.984 235.329 57.744C236.734 56.4627 238.367 55.4707 240.227 54.768C242.128 54.0653 244.133 53.714 246.241 53.714C248.886 53.714 251.221 54.21 253.247 55.202C255.313 56.194 256.905 57.5787 258.021 59.356C259.178 61.092 259.757 63.1173 259.757 65.432V88H253.061V81.924L254.487 82.11C253.701 83.474 252.689 84.652 251.449 85.644C250.25 86.636 248.865 87.4007 247.295 87.938C245.765 88.4753 244.05 88.744 242.149 88.744ZM280.611 88.372C277.098 88.372 274.37 87.38 272.427 85.396C270.484 83.412 269.513 80.622 269.513 77.026V60.782H263.623V54.458H264.553C266.124 54.458 267.343 54.0033 268.211 53.094C269.079 52.1847 269.513 50.9447 269.513 49.374V46.77H276.519V54.458H284.145V60.782H276.519V76.716C276.519 77.8733 276.705 78.8653 277.077 79.692C277.449 80.4773 278.048 81.0973 278.875 81.552C279.702 81.9653 280.776 82.172 282.099 82.172C282.43 82.172 282.802 82.1513 283.215 82.11C283.628 82.0687 284.021 82.0273 284.393 81.986V88C283.814 88.0827 283.174 88.1653 282.471 88.248C281.768 88.3307 281.148 88.372 280.611 88.372ZM305.132 88.744C301.784 88.744 298.808 87.9793 296.204 86.45C293.642 84.8793 291.637 82.7713 290.19 80.126C288.744 77.4393 288.02 74.4427 288.02 71.136C288.02 67.7467 288.744 64.75 290.19 62.146C291.678 59.542 293.662 57.496 296.142 56.008C298.622 54.4787 301.433 53.714 304.574 53.714C307.096 53.714 309.348 54.148 311.332 55.016C313.316 55.884 314.99 57.0827 316.354 58.612C317.718 60.1 318.752 61.8153 319.454 63.758C320.198 65.7007 320.57 67.7673 320.57 69.958C320.57 70.4953 320.55 71.0533 320.508 71.632C320.467 72.2107 320.384 72.748 320.26 73.244H293.538V67.664H316.292L312.944 70.206C313.358 68.1807 313.213 66.3827 312.51 64.812C311.849 63.2 310.816 61.9393 309.41 61.03C308.046 60.0793 306.434 59.604 304.574 59.604C302.714 59.604 301.061 60.0793 299.614 61.03C298.168 61.9393 297.052 63.262 296.266 64.998C295.481 66.6927 295.171 68.7593 295.336 71.198C295.13 73.4713 295.44 75.4553 296.266 77.15C297.134 78.8447 298.333 80.1673 299.862 81.118C301.433 82.0687 303.21 82.544 305.194 82.544C307.22 82.544 308.935 82.0893 310.34 81.18C311.787 80.2707 312.924 79.0927 313.75 77.646L319.454 80.436C318.793 82.0067 317.76 83.4327 316.354 84.714C314.99 85.954 313.337 86.946 311.394 87.69C309.493 88.3927 307.406 88.744 305.132 88.744ZM341.954 88L358.198 41.81H367.25L383.494 88H375.682L372.148 77.646H353.362L349.766 88H341.954ZM355.47 71.136H369.916L361.732 46.956H363.778L355.47 71.136ZM387.051 88V54.458H394.057V88H387.051ZM387.051 49.87V41.81H394.057V49.87H387.051Z"/>
</mask>
<path d="M66.8014 88V48.32H54.5254V41.81H86.1454V48.32H74.0554V88H66.8014ZM101.082 88.744C97.7341 88.744 94.7581 87.9793 92.1541 86.45C89.5915 84.8793 87.5868 82.7713 86.1401 80.126C84.6935 77.4393 83.9701 74.4427 83.9701 71.136C83.9701 67.7467 84.6935 64.75 86.1401 62.146C87.6281 59.542 89.6121 57.496 92.0921 56.008C94.5721 54.4787 97.3828 53.714 100.524 53.714C103.045 53.714 105.298 54.148 107.282 55.016C109.266 55.884 110.94 57.0827 112.304 58.612C113.668 60.1 114.701 61.8153 115.404 63.758C116.148 65.7007 116.52 67.7673 116.52 69.958C116.52 70.4953 116.499 71.0533 116.458 71.632C116.417 72.2107 116.334 72.748 116.21 73.244H89.4881V67.664H112.242L108.894 70.206C109.307 68.1807 109.163 66.3827 108.46 64.812C107.799 63.2 106.765 61.9393 105.36 61.03C103.996 60.0793 102.384 59.604 100.524 59.604C98.6641 59.604 97.0108 60.0793 95.5641 61.03C94.1175 61.9393 93.0015 63.262 92.2161 64.998C91.4308 66.6927 91.1208 68.7593 91.2861 71.198C91.0795 73.4713 91.3895 75.4553 92.2161 77.15C93.0841 78.8447 94.2828 80.1673 95.8121 81.118C97.3828 82.0687 99.1601 82.544 101.144 82.544C103.169 82.544 104.885 82.0893 106.29 81.18C107.737 80.2707 108.873 79.0927 109.7 77.646L115.404 80.436C114.743 82.0067 113.709 83.4327 112.304 84.714C110.94 85.954 109.287 86.946 107.344 87.69C105.443 88.3927 103.355 88.744 101.082 88.744ZM122.118 88V54.458H128.814V61.712L127.946 60.596C128.648 58.3227 129.93 56.6073 131.79 55.45C133.65 54.2927 135.778 53.714 138.176 53.714C140.862 53.714 143.239 54.4373 145.306 55.884C147.414 57.2893 148.819 59.17 149.522 61.526L147.538 61.712C148.53 59.0253 150.038 57.0207 152.064 55.698C154.13 54.3753 156.486 53.714 159.132 53.714C161.446 53.714 163.534 54.2513 165.394 55.326C167.295 56.4007 168.804 57.8887 169.92 59.79C171.036 61.6913 171.594 63.8613 171.594 66.3V88H164.588V68.222C164.588 66.5273 164.278 65.1013 163.658 63.944C163.079 62.7453 162.252 61.836 161.178 61.216C160.144 60.5547 158.925 60.224 157.52 60.224C156.114 60.224 154.874 60.5547 153.8 61.216C152.725 61.836 151.878 62.7453 151.258 63.944C150.638 65.1427 150.328 66.5687 150.328 68.222V88H143.384V68.222C143.384 66.5273 143.074 65.1013 142.454 63.944C141.875 62.7453 141.048 61.836 139.974 61.216C138.94 60.5547 137.7 60.224 136.254 60.224C134.848 60.224 133.608 60.5547 132.534 61.216C131.459 61.836 130.612 62.7453 129.992 63.944C129.413 65.1427 129.124 66.5687 129.124 68.222V88H122.118ZM177.852 100.4V54.458H184.548V61.402L183.742 59.79C184.982 57.8887 186.635 56.4007 188.702 55.326C190.769 54.2513 193.125 53.714 195.77 53.714C198.953 53.714 201.805 54.4787 204.326 56.008C206.889 57.5373 208.893 59.6247 210.34 62.27C211.828 64.9153 212.572 67.8913 212.572 71.198C212.572 74.5047 211.828 77.4807 210.34 80.126C208.893 82.7713 206.909 84.8793 204.388 86.45C201.867 87.9793 198.994 88.744 195.77 88.744C193.166 88.744 190.789 88.2067 188.64 87.132C186.532 86.0573 184.899 84.5073 183.742 82.482L184.858 81.18V100.4H177.852ZM195.088 82.234C197.072 82.234 198.829 81.7587 200.358 80.808C201.887 79.8573 203.086 78.5553 203.954 76.902C204.863 75.2073 205.318 73.306 205.318 71.198C205.318 69.09 204.863 67.2093 203.954 65.556C203.086 63.9027 201.887 62.6007 200.358 61.65C198.829 60.6993 197.072 60.224 195.088 60.224C193.145 60.224 191.389 60.6993 189.818 61.65C188.289 62.6007 187.069 63.9027 186.16 65.556C185.292 67.2093 184.858 69.09 184.858 71.198C184.858 73.306 185.292 75.2073 186.16 76.902C187.069 78.5553 188.289 79.8573 189.818 80.808C191.389 81.7587 193.145 82.234 195.088 82.234ZM218.147 88V41.066H225.153V88H218.147ZM242.149 88.744C239.875 88.744 237.871 88.3513 236.135 87.566C234.44 86.7393 233.117 85.6233 232.167 84.218C231.216 82.7713 230.741 81.0767 230.741 79.134C230.741 77.3153 231.133 75.6827 231.919 74.236C232.745 72.7893 234.006 71.57 235.701 70.578C237.395 69.586 239.524 68.8833 242.087 68.47L253.743 66.548V72.066L243.451 73.864C241.591 74.1947 240.227 74.794 239.359 75.662C238.491 76.4887 238.057 77.5633 238.057 78.886C238.057 80.1673 238.532 81.2213 239.483 82.048C240.475 82.8333 241.735 83.226 243.265 83.226C245.166 83.226 246.819 82.8127 248.225 81.986C249.671 81.1593 250.787 80.064 251.573 78.7C252.358 77.2947 252.751 75.7447 252.751 74.05V65.432C252.751 63.7787 252.131 62.4353 250.891 61.402C249.692 60.3273 248.08 59.79 246.055 59.79C244.195 59.79 242.562 60.286 241.157 61.278C239.793 62.2287 238.78 63.4687 238.119 64.998L232.291 62.084C232.911 60.4307 233.923 58.984 235.329 57.744C236.734 56.4627 238.367 55.4707 240.227 54.768C242.128 54.0653 244.133 53.714 246.241 53.714C248.886 53.714 251.221 54.21 253.247 55.202C255.313 56.194 256.905 57.5787 258.021 59.356C259.178 61.092 259.757 63.1173 259.757 65.432V88H253.061V81.924L254.487 82.11C253.701 83.474 252.689 84.652 251.449 85.644C250.25 86.636 248.865 87.4007 247.295 87.938C245.765 88.4753 244.05 88.744 242.149 88.744ZM280.611 88.372C277.098 88.372 274.37 87.38 272.427 85.396C270.484 83.412 269.513 80.622 269.513 77.026V60.782H263.623V54.458H264.553C266.124 54.458 267.343 54.0033 268.211 53.094C269.079 52.1847 269.513 50.9447 269.513 49.374V46.77H276.519V54.458H284.145V60.782H276.519V76.716C276.519 77.8733 276.705 78.8653 277.077 79.692C277.449 80.4773 278.048 81.0973 278.875 81.552C279.702 81.9653 280.776 82.172 282.099 82.172C282.43 82.172 282.802 82.1513 283.215 82.11C283.628 82.0687 284.021 82.0273 284.393 81.986V88C283.814 88.0827 283.174 88.1653 282.471 88.248C281.768 88.3307 281.148 88.372 280.611 88.372ZM305.132 88.744C301.784 88.744 298.808 87.9793 296.204 86.45C293.642 84.8793 291.637 82.7713 290.19 80.126C288.744 77.4393 288.02 74.4427 288.02 71.136C288.02 67.7467 288.744 64.75 290.19 62.146C291.678 59.542 293.662 57.496 296.142 56.008C298.622 54.4787 301.433 53.714 304.574 53.714C307.096 53.714 309.348 54.148 311.332 55.016C313.316 55.884 314.99 57.0827 316.354 58.612C317.718 60.1 318.752 61.8153 319.454 63.758C320.198 65.7007 320.57 67.7673 320.57 69.958C320.57 70.4953 320.55 71.0533 320.508 71.632C320.467 72.2107 320.384 72.748 320.26 73.244H293.538V67.664H316.292L312.944 70.206C313.358 68.1807 313.213 66.3827 312.51 64.812C311.849 63.2 310.816 61.9393 309.41 61.03C308.046 60.0793 306.434 59.604 304.574 59.604C302.714 59.604 301.061 60.0793 299.614 61.03C298.168 61.9393 297.052 63.262 296.266 64.998C295.481 66.6927 295.171 68.7593 295.336 71.198C295.13 73.4713 295.44 75.4553 296.266 77.15C297.134 78.8447 298.333 80.1673 299.862 81.118C301.433 82.0687 303.21 82.544 305.194 82.544C307.22 82.544 308.935 82.0893 310.34 81.18C311.787 80.2707 312.924 79.0927 313.75 77.646L319.454 80.436C318.793 82.0067 317.76 83.4327 316.354 84.714C314.99 85.954 313.337 86.946 311.394 87.69C309.493 88.3927 307.406 88.744 305.132 88.744ZM341.954 88L358.198 41.81H367.25L383.494 88H375.682L372.148 77.646H353.362L349.766 88H341.954ZM355.47 71.136H369.916L361.732 46.956H363.778L355.47 71.136ZM387.051 88V54.458H394.057V88H387.051ZM387.051 49.87V41.81H394.057V49.87H387.051Z" fill="#FAF9FF"/>
<path d="M66.8014 88H65.8014V89H66.8014V88ZM66.8014 48.32H67.8014V47.32H66.8014V48.32ZM54.5254 48.32H53.5254V49.32H54.5254V48.32ZM54.5254 41.81V40.81H53.5254V41.81H54.5254ZM86.1454 41.81H87.1454V40.81H86.1454V41.81ZM86.1454 48.32V49.32H87.1454V48.32H86.1454ZM74.0554 48.32V47.32H73.0554V48.32H74.0554ZM74.0554 88V89H75.0554V88H74.0554ZM66.8014 88H67.8014V48.32H66.8014H65.8014V88H66.8014ZM66.8014 48.32V47.32H54.5254V48.32V49.32H66.8014V48.32ZM54.5254 48.32H55.5254V41.81H54.5254H53.5254V48.32H54.5254ZM54.5254 41.81V42.81H86.1454V41.81V40.81H54.5254V41.81ZM86.1454 41.81H85.1454V48.32H86.1454H87.1454V41.81H86.1454ZM86.1454 48.32V47.32H74.0554V48.32V49.32H86.1454V48.32ZM74.0554 48.32H73.0554V88H74.0554H75.0554V48.32H74.0554ZM74.0554 88V87H66.8014V88V89H74.0554V88ZM92.1541 86.45L91.6316 87.3026L91.6396 87.3075L91.6477 87.3123L92.1541 86.45ZM86.1401 80.126L85.2596 80.6001L85.2627 80.6058L86.1401 80.126ZM86.1401 62.146L85.2718 61.6498L85.266 61.6604L86.1401 62.146ZM92.0921 56.008L92.6067 56.8656L92.617 56.8592L92.0921 56.008ZM107.282 55.016L106.881 55.9322L107.282 55.016ZM112.304 58.612L111.558 59.2777L111.567 59.2877L112.304 58.612ZM115.404 63.758L114.464 64.0981L114.467 64.1069L114.47 64.1156L115.404 63.758ZM116.458 71.632L117.456 71.7032L116.458 71.632ZM116.21 73.244V74.244H116.991L117.18 73.4865L116.21 73.244ZM89.4881 73.244H88.4881V74.244H89.4881V73.244ZM89.4881 67.664V66.664H88.4881V67.664H89.4881ZM112.242 67.664L112.847 68.4604L115.213 66.664H112.242V67.664ZM108.894 70.206L107.914 70.006L107.383 72.6088L109.499 71.0024L108.894 70.206ZM108.46 64.812L107.535 65.1916L107.541 65.2061L107.547 65.2204L108.46 64.812ZM105.36 61.03L104.788 61.8504L104.802 61.8602L104.817 61.8696L105.36 61.03ZM95.5641 61.03L96.0963 61.8766L96.1049 61.8713L96.1133 61.8657L95.5641 61.03ZM92.2161 64.998L93.1235 65.4185L93.1272 65.4102L92.2161 64.998ZM91.2861 71.198L92.282 71.2885L92.2892 71.2095L92.2838 71.1304L91.2861 71.198ZM92.2161 77.15L91.3174 77.5884L91.3216 77.5972L91.3261 77.6059L92.2161 77.15ZM95.8121 81.118L95.2841 81.9673L95.2943 81.9735L95.8121 81.118ZM106.29 81.18L105.758 80.3333L105.747 80.3404L106.29 81.18ZM109.7 77.646L110.14 76.7477L109.297 76.3357L108.832 77.1499L109.7 77.646ZM115.404 80.436L116.326 80.8241L116.693 79.953L115.844 79.5377L115.404 80.436ZM112.304 84.714L112.977 85.4539L112.978 85.453L112.304 84.714ZM107.344 87.69L107.691 88.6281L107.702 88.6239L107.344 87.69ZM101.082 88.744V87.744C97.8923 87.744 95.0947 87.0173 92.6605 85.5877L92.1541 86.45L91.6477 87.3123C94.4215 88.9413 97.5759 89.744 101.082 89.744V88.744ZM92.1541 86.45L92.6767 85.5974C90.2633 84.1182 88.3807 82.1389 87.0175 79.6462L86.1401 80.126L85.2627 80.6058C86.7929 83.4037 88.9196 85.6405 91.6316 87.3026L92.1541 86.45ZM86.1401 80.126L87.0206 79.6519C85.6589 77.123 84.9701 74.2914 84.9701 71.136H83.9701H82.9701C82.9701 74.594 83.7281 77.7557 85.2597 80.6001L86.1401 80.126ZM83.9701 71.136H84.9701C84.9701 67.8929 85.6609 65.0676 87.0143 62.6316L86.1401 62.146L85.266 61.6604C83.726 64.4324 82.9701 67.6005 82.9701 71.136H83.9701ZM86.1401 62.146L87.0084 62.6421C88.4146 60.1812 90.2791 58.262 92.6066 56.8655L92.0921 56.008L91.5776 55.1505C88.9451 56.73 86.8416 58.9028 85.2719 61.6499L86.1401 62.146ZM92.0921 56.008L92.617 56.8592C94.9269 55.4347 97.5531 54.714 100.524 54.714V53.714V52.714C97.2125 52.714 94.2174 53.5226 91.5672 55.1568L92.0921 56.008ZM100.524 53.714V54.714C102.93 54.714 105.043 55.1278 106.881 55.9322L107.282 55.016L107.683 54.0998C105.553 53.1682 103.161 52.714 100.524 52.714V53.714ZM107.282 55.016L106.881 55.9322C108.741 56.7458 110.295 57.8617 111.558 59.2776L112.304 58.612L113.05 57.9464C111.585 56.3036 109.791 55.0222 107.683 54.0998L107.282 55.016ZM112.304 58.612L111.567 59.2877C112.84 60.6761 113.805 62.2767 114.464 64.0981L115.404 63.758L116.344 63.4179C115.598 61.354 114.497 59.5239 113.041 57.9363L112.304 58.612ZM115.404 63.758L114.47 64.1156C115.168 65.9382 115.52 67.883 115.52 69.958H116.52H117.52C117.52 67.6516 117.128 65.4632 116.338 63.4004L115.404 63.758ZM116.52 69.958H115.52C115.52 70.4698 115.5 71.0039 115.461 71.5608L116.458 71.632L117.456 71.7032C117.498 71.1027 117.52 70.5209 117.52 69.958H116.52ZM116.458 71.632L115.461 71.5608C115.423 72.0892 115.348 72.5686 115.24 73.0015L116.21 73.244L117.18 73.4865C117.32 72.9274 117.411 72.3321 117.456 71.7032L116.458 71.632ZM116.21 73.244V72.244H89.4881V73.244V74.244H116.21V73.244ZM89.4881 73.244H90.4881V67.664H89.4881H88.4881V73.244H89.4881ZM89.4881 67.664V68.664H112.242V67.664V66.664H89.4881V67.664ZM112.242 67.664L111.637 66.8676L108.289 69.4096L108.894 70.206L109.499 71.0024L112.847 68.4604L112.242 67.664ZM108.894 70.206L109.874 70.406C110.32 68.218 110.177 66.2009 109.373 64.4036L108.46 64.812L107.547 65.2204C108.149 66.5644 108.294 68.1433 107.914 70.006L108.894 70.206ZM108.46 64.812L109.385 64.4324C108.65 62.6399 107.487 61.2153 105.903 60.1904L105.36 61.03L104.817 61.8696C106.044 62.6634 106.948 63.76 107.535 65.1916L108.46 64.812ZM105.36 61.03L105.932 60.2096C104.381 59.1283 102.563 58.604 100.524 58.604V59.604V60.604C102.205 60.604 103.612 61.0303 104.788 61.8504L105.36 61.03ZM100.524 59.604V58.604C98.4842 58.604 96.637 59.1284 95.0149 60.1943L95.5641 61.03L96.1133 61.8657C97.3846 61.0303 98.8441 60.604 100.524 60.604V59.604ZM95.5641 61.03L95.0319 60.1834C93.4003 61.209 92.1616 62.6923 91.305 64.5858L92.2161 64.998L93.1272 65.4102C93.8413 63.8317 94.8346 62.6697 96.0963 61.8766L95.5641 61.03ZM92.2161 64.998L91.3088 64.5775C90.4343 66.4646 90.1151 68.7094 90.2884 71.2656L91.2861 71.198L92.2838 71.1304C92.1265 68.8092 92.4273 66.9207 93.1234 65.4185L92.2161 64.998ZM91.2861 71.198L90.2902 71.1075C90.0705 73.5243 90.3952 75.6981 91.3174 77.5884L92.2161 77.15L93.1149 76.7116C92.3837 75.2126 92.0884 73.4184 92.282 71.2885L91.2861 71.198ZM92.2161 77.15L91.3261 77.6059C92.2719 79.4525 93.5917 80.9152 95.2842 81.9673L95.8121 81.118L96.3401 80.2687C94.9739 79.4195 93.8964 78.2369 93.1062 76.6941L92.2161 77.15ZM95.8121 81.118L95.2943 81.9735C97.0337 83.0263 98.9928 83.544 101.144 83.544V82.544V81.544C99.3274 81.544 97.7319 81.111 96.3299 80.2625L95.8121 81.118ZM101.144 82.544V83.544C103.321 83.544 105.235 83.0538 106.833 82.0196L106.29 81.18L105.747 80.3404C104.535 81.1249 103.018 81.544 101.144 81.544V82.544ZM106.29 81.18L106.822 82.0266C108.404 81.0322 109.658 79.7352 110.568 78.1421L109.7 77.646L108.832 77.1499C108.089 78.4501 107.069 79.5092 105.758 80.3334L106.29 81.18ZM109.7 77.646L109.261 78.5443L114.965 81.3343L115.404 80.436L115.844 79.5377L110.14 76.7477L109.7 77.646ZM115.404 80.436L114.482 80.0479C113.884 81.4703 112.941 82.7799 111.63 83.975L112.304 84.714L112.978 85.453C114.478 84.0854 115.602 82.543 116.326 80.8241L115.404 80.436ZM112.304 84.714L111.631 83.9741C110.371 85.1203 108.828 86.0509 106.986 86.7561L107.344 87.69L107.702 88.6239C109.746 87.8411 111.51 86.7877 112.977 85.4539L112.304 84.714ZM107.344 87.69L106.997 86.752C105.22 87.409 103.251 87.744 101.082 87.744V88.744V89.744C103.459 89.744 105.666 89.3763 107.691 88.628L107.344 87.69ZM122.118 88H121.118V89H122.118V88ZM122.118 54.458V53.458H121.118V54.458H122.118ZM128.814 54.458H129.814V53.458H128.814V54.458ZM128.814 61.712L128.024 62.3259L129.814 64.6265V61.712H128.814ZM127.946 60.596L126.99 60.3007L126.836 60.7986L127.156 61.2099L127.946 60.596ZM131.79 55.45L131.261 54.6009L131.79 55.45ZM145.306 55.884L144.732 56.7032L144.741 56.7097L144.751 56.716L145.306 55.884ZM149.522 61.526L149.615 62.5216L150.828 62.4079L150.48 61.2402L149.522 61.526ZM147.538 61.712L146.599 61.3656L146.049 62.8559L147.631 62.7076L147.538 61.712ZM152.064 55.698L151.524 54.8557L151.517 54.8607L152.064 55.698ZM165.394 55.326L164.893 56.1919L164.902 56.1966L165.394 55.326ZM169.92 59.79L169.057 60.2962V60.2962L169.92 59.79ZM171.594 88V89H172.594V88H171.594ZM164.588 88H163.588V89H164.588V88ZM163.658 63.944L162.757 64.3787L162.766 64.3977L162.776 64.4162L163.658 63.944ZM161.178 61.216L160.639 62.0583L160.658 62.0707L160.678 62.0822L161.178 61.216ZM153.8 61.216L154.299 62.0822L154.312 62.0751L154.324 62.0677L153.8 61.216ZM151.258 63.944L152.146 64.4034L151.258 63.944ZM150.328 88V89H151.328V88H150.328ZM143.384 88H142.384V89H143.384V88ZM142.454 63.944L141.553 64.3787L141.562 64.3977L141.572 64.4162L142.454 63.944ZM139.974 61.216L139.434 62.0583L139.454 62.0707L139.474 62.0822L139.974 61.216ZM132.534 61.216L133.033 62.0822L133.046 62.0751L133.058 62.0677L132.534 61.216ZM129.992 63.944L129.103 63.4846L129.097 63.4968L129.091 63.5093L129.992 63.944ZM129.124 88V89H130.124V88H129.124ZM122.118 88H123.118V54.458H122.118H121.118V88H122.118ZM122.118 54.458V55.458H128.814V54.458V53.458H122.118V54.458ZM128.814 54.458H127.814V61.712H128.814H129.814V54.458H128.814ZM128.814 61.712L129.603 61.0981L128.735 59.9821L127.946 60.596L127.156 61.2099L128.024 62.3259L128.814 61.712ZM127.946 60.596L128.901 60.8913C129.539 58.8265 130.68 57.3179 132.318 56.2991L131.79 55.45L131.261 54.6009C129.179 55.8968 127.757 57.8188 126.99 60.3007L127.946 60.596ZM131.79 55.45L132.318 56.2991C134.004 55.2496 135.947 54.714 138.176 54.714V53.714V52.714C135.61 52.714 133.295 53.3357 131.261 54.6009L131.79 55.45ZM138.176 53.714V54.714C140.671 54.714 142.845 55.3821 144.732 56.7032L145.306 55.884L145.879 55.0648C143.633 53.4926 141.053 52.714 138.176 52.714V53.714ZM145.306 55.884L144.751 56.716C146.671 57.9963 147.929 59.6867 148.563 61.8118L149.522 61.526L150.48 61.2402C149.708 58.6533 148.156 56.5824 145.86 55.0519L145.306 55.884ZM149.522 61.526L149.428 60.5304L147.444 60.7164L147.538 61.712L147.631 62.7076L149.615 62.5216L149.522 61.526ZM147.538 61.712L148.476 62.0584C149.407 59.5349 150.796 57.7201 152.61 56.5353L152.064 55.698L151.517 54.8607C149.28 56.3213 147.652 58.5158 146.599 61.3656L147.538 61.712ZM152.064 55.698L152.603 56.5403C154.496 55.3287 156.662 54.714 159.132 54.714V53.714V52.714C156.311 52.714 153.765 53.422 151.525 54.8557L152.064 55.698ZM159.132 53.714V54.714C161.285 54.714 163.197 55.2118 164.893 56.1919L165.394 55.326L165.894 54.4601C163.87 53.2908 161.608 52.714 159.132 52.714V53.714ZM165.394 55.326L164.902 56.1966C166.648 57.1837 168.029 58.5453 169.057 60.2962L169.92 59.79L170.782 59.2838C169.578 57.232 167.942 55.6177 165.886 54.4554L165.394 55.326ZM169.92 59.79L169.057 60.2962C170.074 62.0281 170.594 64.0199 170.594 66.3H171.594H172.594C172.594 63.7028 171.997 61.3545 170.782 59.2838L169.92 59.79ZM171.594 66.3H170.594V88H171.594H172.594V66.3H171.594ZM171.594 88V87H164.588V88V89H171.594V88ZM164.588 88H165.588V68.222H164.588H163.588V88H164.588ZM164.588 68.222H165.588C165.588 66.4091 165.256 64.8105 164.539 63.4718L163.658 63.944L162.776 64.4162C163.299 65.3922 163.588 66.6456 163.588 68.222H164.588ZM163.658 63.944L164.558 63.5093C163.899 62.1436 162.939 61.0775 161.677 60.3498L161.178 61.216L160.678 62.0822C161.566 62.5945 162.259 63.347 162.757 64.3787L163.658 63.944ZM161.178 61.216L161.717 60.3737C160.5 59.595 159.087 59.224 157.52 59.224V60.224V61.224C158.762 61.224 159.789 61.5143 160.639 62.0583L161.178 61.216ZM157.52 60.224V59.224C155.951 59.224 154.525 59.5953 153.275 60.3643L153.8 61.216L154.324 62.0677C155.223 61.5141 156.278 61.224 157.52 61.224V60.224ZM153.8 61.216L153.3 60.3498C152.045 61.0738 151.069 62.1315 150.369 63.4846L151.258 63.944L152.146 64.4034C152.686 63.3592 153.405 62.5982 154.299 62.0822L153.8 61.216ZM151.258 63.944L150.369 63.4846C149.661 64.8537 149.328 66.4443 149.328 68.222H150.328H151.328C151.328 66.6931 151.614 65.4316 152.146 64.4034L151.258 63.944ZM150.328 68.222H149.328V88H150.328H151.328V68.222H150.328ZM150.328 88V87H143.384V88V89H150.328V88ZM143.384 88H144.384V68.222H143.384H142.384V88H143.384ZM143.384 68.222H144.384C144.384 66.4091 144.052 64.8105 143.335 63.4718L142.454 63.944L141.572 64.4162C142.095 65.3922 142.384 66.6456 142.384 68.222H143.384ZM142.454 63.944L143.354 63.5093C142.695 62.1436 141.735 61.0775 140.473 60.3498L139.974 61.216L139.474 62.0822C140.362 62.5945 141.055 63.347 141.553 64.3787L142.454 63.944ZM139.974 61.216L140.513 60.3737C139.291 59.5921 137.856 59.224 136.254 59.224V60.224V61.224C137.544 61.224 138.589 61.5172 139.434 62.0583L139.974 61.216ZM136.254 60.224V59.224C134.685 59.224 133.259 59.5953 132.009 60.3643L132.534 61.216L133.058 62.0677C133.957 61.5141 135.012 61.224 136.254 61.224V60.224ZM132.534 61.216L132.034 60.3498C130.779 61.0738 129.803 62.1315 129.103 63.4846L129.992 63.944L130.88 64.4034C131.42 63.3592 132.139 62.5982 133.033 62.0822L132.534 61.216ZM129.992 63.944L129.091 63.5093C128.433 64.8723 128.124 66.4537 128.124 68.222H129.124H130.124C130.124 66.6836 130.393 65.4131 130.892 64.3787L129.992 63.944ZM129.124 68.222H128.124V88H129.124H130.124V68.222H129.124ZM129.124 88V87H122.118V88V89H129.124V88ZM177.852 100.4H176.852V101.4H177.852V100.4ZM177.852 54.458V53.458H176.852V54.458H177.852ZM184.548 54.458H185.548V53.458H184.548V54.458ZM184.548 61.402L183.654 61.8492L185.548 61.402H184.548ZM183.742 59.79L182.905 59.2437L182.591 59.7242L182.848 60.2372L183.742 59.79ZM188.702 55.326L189.164 56.2132L188.702 55.326ZM204.326 56.008L203.808 56.863L203.814 56.8667L204.326 56.008ZM210.34 62.27L209.463 62.7498L209.469 62.7603L210.34 62.27ZM210.34 80.126L209.469 79.6357L209.463 79.6462L210.34 80.126ZM204.388 86.45L204.907 87.3051L204.917 87.2988L204.388 86.45ZM188.64 87.132L188.186 88.0229L188.193 88.0264L188.64 87.132ZM183.742 82.482L182.983 81.8312L182.524 82.3663L182.874 82.9781L183.742 82.482ZM184.858 81.18H185.858V78.4767L184.099 80.5292L184.858 81.18ZM184.858 100.4V101.4H185.858V100.4H184.858ZM200.358 80.808L200.886 81.6573L200.358 80.808ZM203.954 76.902L203.073 76.4292L203.069 76.4372L203.954 76.902ZM203.954 65.556L203.069 66.0208L203.073 66.0294L203.078 66.0379L203.954 65.556ZM189.818 61.65L189.3 60.7944L189.29 60.8007L189.818 61.65ZM186.16 65.556L185.284 65.0741L185.279 65.0826L185.275 65.0912L186.16 65.556ZM186.16 76.902L185.27 77.3579L185.277 77.371L185.284 77.3839L186.16 76.902ZM189.818 80.808L189.29 81.6573L189.3 81.6635L189.818 80.808ZM177.852 100.4H178.852V54.458H177.852H176.852V100.4H177.852ZM177.852 54.458V55.458H184.548V54.458V53.458H177.852V54.458ZM184.548 54.458H183.548V61.402H184.548H185.548V54.458H184.548ZM184.548 61.402L185.443 60.9548L184.637 59.3428L183.742 59.79L182.848 60.2372L183.654 61.8492L184.548 61.402ZM183.742 59.79L184.58 60.3363C185.723 58.583 187.245 57.2107 189.164 56.2132L188.702 55.326L188.241 54.4388C186.026 55.5907 184.241 57.1944 182.905 59.2437L183.742 59.79ZM188.702 55.326L189.164 56.2132C191.069 55.2222 193.263 54.714 195.77 54.714V53.714V52.714C192.986 52.714 190.468 53.2805 188.241 54.4388L188.702 55.326ZM195.77 53.714V54.714C198.785 54.714 201.455 55.436 203.808 56.863L204.326 56.008L204.845 55.153C202.155 53.5213 199.121 52.714 195.77 52.714V53.714ZM204.326 56.008L203.814 56.8667C206.221 58.3036 208.101 60.2594 209.463 62.7498L210.34 62.27L211.218 61.7902C209.686 58.9899 207.556 56.7711 204.839 55.1493L204.326 56.008ZM210.34 62.27L209.469 62.7603C210.865 65.2427 211.572 68.0473 211.572 71.198H212.572H213.572C213.572 67.7354 212.791 64.5879 211.212 61.7797L210.34 62.27ZM212.572 71.198H211.572C211.572 74.3487 210.865 77.1533 209.469 79.6357L210.34 80.126L211.212 80.6163C212.791 77.8081 213.572 74.6606 213.572 71.198H212.572ZM210.34 80.126L209.463 79.6462C208.097 82.143 206.232 84.1229 203.859 85.6012L204.388 86.45L204.917 87.2988C207.587 85.6357 209.69 83.3997 211.218 80.6058L210.34 80.126ZM204.388 86.45L203.87 85.595C201.519 87.0207 198.829 87.744 195.77 87.744V88.744V89.744C199.159 89.744 202.215 88.9379 204.907 87.305L204.388 86.45ZM195.77 88.744V87.744C193.308 87.744 191.086 87.2371 189.087 86.2376L188.64 87.132L188.193 88.0264C190.493 89.1762 193.024 89.744 195.77 89.744V88.744ZM188.64 87.132L189.094 86.2411C187.157 85.2535 185.67 83.8395 184.61 81.9859L183.742 82.482L182.874 82.9781C184.129 85.1751 185.907 86.8611 188.186 88.0229L188.64 87.132ZM183.742 82.482L184.501 83.1328L185.617 81.8308L184.858 81.18L184.099 80.5292L182.983 81.8312L183.742 82.482ZM184.858 81.18H183.858V100.4H184.858H185.858V81.18H184.858ZM184.858 100.4V99.4H177.852V100.4V101.4H184.858V100.4ZM195.088 82.234V83.234C197.239 83.234 199.182 82.7163 200.886 81.6573L200.358 80.808L199.83 79.9587C198.475 80.801 196.905 81.234 195.088 81.234V82.234ZM200.358 80.808L200.886 81.6573C202.572 80.609 203.892 79.1718 204.84 77.3668L203.954 76.902L203.069 76.4372C202.28 77.9389 201.203 79.1056 199.83 79.9587L200.358 80.808ZM203.954 76.902L204.835 77.3748C205.83 75.5211 206.318 73.4548 206.318 71.198H205.318H204.318C204.318 73.1572 203.897 74.8935 203.073 76.4292L203.954 76.902ZM205.318 71.198H206.318C206.318 68.9416 205.83 66.8917 204.83 65.0741L203.954 65.556L203.078 66.0379C203.897 67.5269 204.318 69.2384 204.318 71.198H205.318ZM203.954 65.556L204.84 65.0912C203.892 63.2862 202.572 61.849 200.886 60.8007L200.358 61.65L199.83 62.4993C201.203 63.3524 202.28 64.5191 203.069 66.0208L203.954 65.556ZM200.358 61.65L200.886 60.8007C199.182 59.7417 197.239 59.224 195.088 59.224V60.224V61.224C196.905 61.224 198.475 61.657 199.83 62.4993L200.358 61.65ZM195.088 60.224V59.224C192.974 59.224 191.036 59.7437 189.3 60.7945L189.818 61.65L190.336 62.5055C191.741 61.6549 193.317 61.224 195.088 61.224V60.224ZM189.818 61.65L189.29 60.8007C187.608 61.8463 186.272 63.2779 185.284 65.0741L186.16 65.556L187.036 66.0379C187.867 64.5274 188.97 63.355 190.346 62.4993L189.818 61.65ZM186.16 65.556L185.275 65.0912C184.322 66.9055 183.858 68.9492 183.858 71.198H184.858H185.858C185.858 69.2308 186.262 67.5132 187.046 66.0208L186.16 65.556ZM184.858 71.198H183.858C183.858 73.4473 184.322 75.5075 185.27 77.3579L186.16 76.902L187.05 76.4461C186.262 74.9071 185.858 73.1647 185.858 71.198H184.858ZM186.16 76.902L185.284 77.3839C186.272 79.1801 187.608 80.6117 189.29 81.6573L189.818 80.808L190.346 79.9587C188.97 79.103 187.867 77.9306 187.036 76.4201L186.16 76.902ZM189.818 80.808L189.3 81.6635C191.036 82.7143 192.974 83.234 195.088 83.234V82.234V81.234C193.317 81.234 191.741 80.8031 190.336 79.9525L189.818 80.808ZM218.147 88H217.147V89H218.147V88ZM218.147 41.066V40.066H217.147V41.066H218.147ZM225.153 41.066H226.153V40.066H225.153V41.066ZM225.153 88V89H226.153V88H225.153ZM218.147 88H219.147V41.066H218.147H217.147V88H218.147ZM218.147 41.066V42.066H225.153V41.066V40.066H218.147V41.066ZM225.153 41.066H224.153V88H225.153H226.153V41.066H225.153ZM225.153 88V87H218.147V88V89H225.153V88ZM236.135 87.566L235.696 88.4648L235.709 88.4711L235.722 88.4771L236.135 87.566ZM232.167 84.218L231.331 84.7672L231.338 84.7783L232.167 84.218ZM231.919 74.236L231.05 73.7399L231.045 73.7493L231.04 73.7589L231.919 74.236ZM235.701 70.578L235.195 69.715L235.701 70.578ZM242.087 68.47L242.246 69.4572L242.249 69.4567L242.087 68.47ZM253.743 66.548H254.743V65.3696L253.58 65.5613L253.743 66.548ZM253.743 72.066L253.915 73.0511L254.743 72.9064V72.066H253.743ZM243.451 73.864L243.279 72.8789L243.276 72.8794L243.451 73.864ZM239.359 75.662L240.048 76.3861L240.057 76.3777L240.066 76.3691L239.359 75.662ZM239.483 82.048L238.826 82.8026L238.844 82.8177L238.862 82.832L239.483 82.048ZM248.225 81.986L247.728 81.1177L247.718 81.1241L248.225 81.986ZM251.573 78.7L252.439 79.199L252.446 79.1878L251.573 78.7ZM250.891 61.402L250.223 62.1466L250.237 62.1586L250.25 62.1702L250.891 61.402ZM241.157 61.278L241.728 62.0984L241.733 62.095L241.157 61.278ZM238.119 64.998L237.671 65.8924L238.617 66.3652L239.036 65.3949L238.119 64.998ZM232.291 62.084L231.354 61.7329L231.038 62.5758L231.843 62.9784L232.291 62.084ZM235.329 57.744L235.99 58.4938L235.996 58.4884L236.002 58.483L235.329 57.744ZM240.227 54.768L239.88 53.83L239.873 53.8325L240.227 54.768ZM253.247 55.202L252.807 56.1001L252.814 56.1035L253.247 55.202ZM258.021 59.356L257.174 59.8878L257.181 59.8993L257.189 59.9107L258.021 59.356ZM259.757 88V89H260.757V88H259.757ZM253.061 88H252.061V89H253.061V88ZM253.061 81.924L253.19 80.9324L252.061 80.7851V81.924H253.061ZM254.487 82.11L255.353 82.609L256.1 81.312L254.616 81.1184L254.487 82.11ZM251.449 85.644L250.824 84.8631L250.817 84.8683L250.811 84.8736L251.449 85.644ZM247.295 87.938L246.971 86.9918L246.963 86.9945L247.295 87.938ZM242.149 88.744V87.744C239.99 87.744 238.131 87.3714 236.547 86.6549L236.135 87.566L235.722 88.4771C237.61 89.3312 239.76 89.744 242.149 89.744V88.744ZM236.135 87.566L236.573 86.6672C235.018 85.9086 233.837 84.9023 232.995 83.6577L232.167 84.218L231.338 84.7783C232.398 86.3443 233.862 87.5701 235.696 88.4648L236.135 87.566ZM232.167 84.218L233.002 83.6688C232.172 82.4047 231.741 80.9062 231.741 79.134H230.741H229.741C229.741 81.2472 230.26 83.1379 231.331 84.7672L232.167 84.218ZM230.741 79.134H231.741C231.741 77.4641 232.1 75.9984 232.797 74.7131L231.919 74.236L231.04 73.7589C230.167 75.3669 229.741 77.1665 229.741 79.134H230.741ZM231.919 74.236L232.787 74.7321C233.512 73.4626 234.635 72.3605 236.206 71.441L235.701 70.578L235.195 69.715C233.377 70.7795 231.978 72.1161 231.05 73.7399L231.919 74.236ZM235.701 70.578L236.206 71.441C237.766 70.528 239.768 69.8569 242.246 69.4572L242.087 68.47L241.927 67.4828C239.28 67.9098 237.025 68.644 235.195 69.715L235.701 70.578ZM242.087 68.47L242.249 69.4567L253.905 67.5347L253.743 66.548L253.58 65.5613L241.924 67.4833L242.087 68.47ZM253.743 66.548H252.743V72.066H253.743H254.743V66.548H253.743ZM253.743 72.066L253.57 71.0809L243.279 72.8789L243.451 73.864L243.623 74.8491L253.915 73.0511L253.743 72.066ZM243.451 73.864L243.276 72.8794C241.315 73.2279 239.723 73.8833 238.651 74.9549L239.359 75.662L240.066 76.3691C240.73 75.7047 241.866 75.1614 243.626 74.8486L243.451 73.864ZM239.359 75.662L238.669 74.9379C237.581 75.9738 237.057 77.321 237.057 78.886H238.057H239.057C239.057 77.8057 239.4 77.0035 240.048 76.3861L239.359 75.662ZM238.057 78.886H237.057C237.057 80.4511 237.653 81.7823 238.826 82.8026L239.483 82.048L240.139 81.2934C239.411 80.6603 239.057 79.8836 239.057 78.886H238.057ZM239.483 82.048L238.862 82.832C240.065 83.7847 241.559 84.226 243.265 84.226V83.226V82.226C241.912 82.226 240.884 81.882 240.103 81.264L239.483 82.048ZM243.265 83.226V84.226C245.314 84.226 247.149 83.7791 248.732 82.8479L248.225 81.986L247.718 81.1241C246.49 81.8463 245.018 82.226 243.265 82.226V83.226ZM248.225 81.986L248.721 82.8542C250.312 81.9449 251.56 80.7259 252.439 79.199L251.573 78.7L250.706 78.201C250.014 79.4021 249.03 80.3738 247.728 81.1178L248.225 81.986ZM251.573 78.7L252.446 79.1878C253.319 77.6255 253.751 75.9061 253.751 74.05H252.751H251.751C251.751 75.5832 251.397 76.9639 250.7 78.2122L251.573 78.7ZM252.751 74.05H253.751V65.432H252.751H251.751V74.05H252.751ZM252.751 65.432H253.751C253.751 63.4902 253.005 61.8624 251.531 60.6338L250.891 61.402L250.25 62.1702C251.256 63.0083 251.751 64.0671 251.751 65.432H252.751ZM250.891 61.402L251.558 60.6574C250.132 59.379 248.26 58.79 246.055 58.79V59.79V60.79C247.899 60.79 249.252 61.2756 250.223 62.1466L250.891 61.402ZM246.055 59.79V58.79C244.006 58.79 242.168 59.3401 240.58 60.461L241.157 61.278L241.733 62.095C242.956 61.2319 244.383 60.79 246.055 60.79V59.79ZM241.157 61.278L240.585 60.4576C239.068 61.5148 237.936 62.9016 237.201 64.6011L238.119 64.998L239.036 65.3949C239.624 64.0358 240.517 62.9426 241.728 62.0984L241.157 61.278ZM238.119 64.998L238.566 64.1036L232.738 61.1896L232.291 62.084L231.843 62.9784L237.671 65.8924L238.119 64.998ZM232.291 62.084L233.227 62.4351C233.786 60.9446 234.7 59.6323 235.99 58.4938L235.329 57.744L234.667 56.9942C233.147 58.3357 232.035 59.9167 231.354 61.7329L232.291 62.084ZM235.329 57.744L236.002 58.483C237.31 57.2906 238.833 56.3635 240.58 55.7035L240.227 54.768L239.873 53.8325C237.9 54.5778 236.158 55.6347 234.655 57.005L235.329 57.744ZM240.227 54.768L240.573 55.706C242.359 55.046 244.246 54.714 246.241 54.714V53.714V52.714C244.019 52.714 241.897 53.0847 239.88 53.83L240.227 54.768ZM246.241 53.714V54.714C248.76 54.714 250.94 55.1858 252.807 56.1001L253.247 55.202L253.686 54.3039C251.502 53.2342 249.012 52.714 246.241 52.714V53.714ZM253.247 55.202L252.814 56.1035C254.727 57.0217 256.167 58.285 257.174 59.8878L258.021 59.356L258.867 58.8242C257.642 56.8724 255.9 55.3663 253.679 54.3005L253.247 55.202ZM258.021 59.356L257.189 59.9107C258.225 61.4647 258.757 63.2923 258.757 65.432H259.757H260.757C260.757 62.9423 260.131 60.7193 258.853 58.8013L258.021 59.356ZM259.757 65.432H258.757V88H259.757H260.757V65.432H259.757ZM259.757 88V87H253.061V88V89H259.757V88ZM253.061 88H254.061V81.924H253.061H252.061V88H253.061ZM253.061 81.924L252.931 82.9156L254.357 83.1016L254.487 82.11L254.616 81.1184L253.19 80.9324L253.061 81.924ZM254.487 82.11L253.62 81.611C252.898 82.8658 251.967 83.9485 250.824 84.8631L251.449 85.644L252.073 86.4249C253.41 85.3555 254.505 84.0822 255.353 82.609L254.487 82.11ZM251.449 85.644L250.811 84.8736C249.712 85.7835 248.435 86.491 246.971 86.9918L247.295 87.938L247.618 88.8842C249.296 88.3103 250.788 87.4885 252.086 86.4144L251.449 85.644ZM247.295 87.938L246.963 86.9945C245.557 87.4886 243.956 87.744 242.149 87.744V88.744V89.744C244.144 89.744 245.974 89.4621 247.626 88.8815L247.295 87.938ZM272.427 85.396L273.141 84.6964L272.427 85.396ZM269.513 60.782H270.513V59.782H269.513V60.782ZM263.623 60.782H262.623V61.782H263.623V60.782ZM263.623 54.458V53.458H262.623V54.458H263.623ZM268.211 53.094L267.488 52.4035L268.211 53.094ZM269.513 46.77V45.77H268.513V46.77H269.513ZM276.519 46.77H277.519V45.77H276.519V46.77ZM276.519 54.458H275.519V55.458H276.519V54.458ZM284.145 54.458H285.145V53.458H284.145V54.458ZM284.145 60.782V61.782H285.145V60.782H284.145ZM276.519 60.782V59.782H275.519V60.782H276.519ZM277.077 79.692L276.165 80.1024L276.169 80.1113L276.173 80.1201L277.077 79.692ZM278.875 81.552L278.393 82.4282L278.41 82.4377L278.428 82.4464L278.875 81.552ZM283.215 82.11L283.115 81.115L283.215 82.11ZM284.393 81.986H285.393V80.8687L284.282 80.9921L284.393 81.986ZM284.393 88L284.534 88.9899L285.393 88.8673V88H284.393ZM282.471 88.248L282.588 89.2411L282.471 88.248ZM280.611 88.372V87.372C277.291 87.372 274.849 86.4404 273.141 84.6964L272.427 85.396L271.712 86.0956C273.89 88.3196 276.904 89.372 280.611 89.372V88.372ZM272.427 85.396L273.141 84.6964C271.431 82.9497 270.513 80.4407 270.513 77.026H269.513H268.513C268.513 80.8033 269.537 83.8743 271.712 86.0956L272.427 85.396ZM269.513 77.026H270.513V60.782H269.513H268.513V77.026H269.513ZM269.513 60.782V59.782H263.623V60.782V61.782H269.513V60.782ZM263.623 60.782H264.623V54.458H263.623H262.623V60.782H263.623ZM263.623 54.458V55.458H264.553V54.458V53.458H263.623V54.458ZM264.553 54.458V55.458C266.324 55.458 267.833 54.9385 268.934 53.7845L268.211 53.094L267.488 52.4035C266.853 53.0682 265.923 53.458 264.553 53.458V54.458ZM268.211 53.094L268.934 53.7845C270.021 52.6456 270.513 51.1345 270.513 49.374H269.513H268.513C268.513 50.7548 268.136 51.7238 267.488 52.4035L268.211 53.094ZM269.513 49.374H270.513V46.77H269.513H268.513V49.374H269.513ZM269.513 46.77V47.77H276.519V46.77V45.77H269.513V46.77ZM276.519 46.77H275.519V54.458H276.519H277.519V46.77H276.519ZM276.519 54.458V55.458H284.145V54.458V53.458H276.519V54.458ZM284.145 54.458H283.145V60.782H284.145H285.145V54.458H284.145ZM284.145 60.782V59.782H276.519V60.782V61.782H284.145V60.782ZM276.519 60.782H275.519V76.716H276.519H277.519V60.782H276.519ZM276.519 76.716H275.519C275.519 77.9771 275.721 79.1162 276.165 80.1024L277.077 79.692L277.989 79.2816C277.689 78.6144 277.519 77.7696 277.519 76.716H276.519ZM277.077 79.692L276.173 80.1201C276.643 81.1119 277.399 81.8814 278.393 82.4282L278.875 81.552L279.357 80.6758C278.698 80.3133 278.255 79.8428 277.981 79.2639L277.077 79.692ZM278.875 81.552L278.428 82.4464C279.44 82.9525 280.683 83.172 282.099 83.172V82.172V81.172C280.869 81.172 279.963 80.9781 279.322 80.6576L278.875 81.552ZM282.099 82.172V83.172C282.47 83.172 282.876 83.1489 283.314 83.105L283.215 82.11L283.115 81.115C282.727 81.1538 282.389 81.172 282.099 81.172V82.172ZM283.215 82.11L283.314 83.105C283.731 83.0634 284.127 83.0217 284.503 82.9799L284.393 81.986L284.282 80.9921C283.914 81.033 283.525 81.074 283.115 81.115L283.215 82.11ZM284.393 81.986H283.393V88H284.393H285.393V81.986H284.393ZM284.393 88L284.251 87.0101C283.682 87.0913 283.05 87.173 282.354 87.2548L282.471 88.248L282.588 89.2411C283.297 89.1577 283.946 89.074 284.534 88.9899L284.393 88ZM282.471 88.248L282.354 87.2548C281.679 87.3343 281.099 87.372 280.611 87.372V88.372V89.372C281.197 89.372 281.858 89.327 282.588 89.2411L282.471 88.248ZM296.204 86.45L295.682 87.3026L295.69 87.3075L295.698 87.3123L296.204 86.45ZM290.19 80.126L289.31 80.6001L289.313 80.6058L290.19 80.126ZM290.19 62.146L289.322 61.6498L289.316 61.6604L290.19 62.146ZM296.142 56.008L296.657 56.8656L296.667 56.8592L296.142 56.008ZM311.332 55.016L310.932 55.9322L311.332 55.016ZM316.354 58.612L315.608 59.2777L315.617 59.2877L316.354 58.612ZM319.454 63.758L318.514 64.0981L318.517 64.1069L318.521 64.1156L319.454 63.758ZM320.508 71.632L321.506 71.7032L320.508 71.632ZM320.26 73.244V74.244H321.041L321.23 73.4865L320.26 73.244ZM293.538 73.244H292.538V74.244H293.538V73.244ZM293.538 67.664V66.664H292.538V67.664H293.538ZM316.292 67.664L316.897 68.4604L319.263 66.664H316.292V67.664ZM312.944 70.206L311.965 70.006L311.433 72.6088L313.549 71.0024L312.944 70.206ZM312.51 64.812L311.585 65.1916L311.591 65.2061L311.598 65.2204L312.51 64.812ZM309.41 61.03L308.839 61.8504L308.853 61.8602L308.867 61.8696L309.41 61.03ZM299.614 61.03L300.147 61.8766L300.155 61.8713L300.164 61.8657L299.614 61.03ZM296.266 64.998L297.174 65.4185L297.177 65.4102L296.266 64.998ZM295.336 71.198L296.332 71.2885L296.339 71.2095L296.334 71.1304L295.336 71.198ZM296.266 77.15L295.368 77.5884L295.372 77.5972L295.376 77.6059L296.266 77.15ZM299.862 81.118L299.334 81.9673L299.345 81.9735L299.862 81.118ZM310.34 81.18L309.808 80.3333L309.797 80.3404L310.34 81.18ZM313.75 77.646L314.19 76.7477L313.347 76.3357L312.882 77.1499L313.75 77.646ZM319.454 80.436L320.376 80.8241L320.743 79.953L319.894 79.5377L319.454 80.436ZM316.354 84.714L317.027 85.4539L317.028 85.453L316.354 84.714ZM311.394 87.69L311.741 88.6281L311.752 88.6239L311.394 87.69ZM305.132 88.744V87.744C301.943 87.744 299.145 87.0173 296.711 85.5877L296.204 86.45L295.698 87.3123C298.472 88.9413 301.626 89.744 305.132 89.744V88.744ZM296.204 86.45L296.727 85.5974C294.314 84.1182 292.431 82.1389 291.068 79.6462L290.19 80.126L289.313 80.6058C290.843 83.4037 292.97 85.6405 295.682 87.3026L296.204 86.45ZM290.19 80.126L291.071 79.6519C289.709 77.123 289.02 74.2914 289.02 71.136H288.02H287.02C287.02 74.594 287.778 77.7557 289.31 80.6001L290.19 80.126ZM288.02 71.136H289.02C289.02 67.8929 289.711 65.0676 291.065 62.6316L290.19 62.146L289.316 61.6604C287.776 64.4324 287.02 67.6005 287.02 71.136H288.02ZM290.19 62.146L291.059 62.6421C292.465 60.1812 294.329 58.262 296.657 56.8655L296.142 56.008L295.628 55.1505C292.995 56.73 290.892 58.9028 289.322 61.6499L290.19 62.146ZM296.142 56.008L296.667 56.8592C298.977 55.4347 301.603 54.714 304.574 54.714V53.714V52.714C301.263 52.714 298.268 53.5226 295.617 55.1568L296.142 56.008ZM304.574 53.714V54.714C306.98 54.714 309.093 55.1278 310.932 55.9322L311.332 55.016L311.733 54.0998C309.604 53.1682 307.211 52.714 304.574 52.714V53.714ZM311.332 55.016L310.932 55.9322C312.791 56.7458 314.345 57.8617 315.608 59.2776L316.354 58.612L317.101 57.9464C315.635 56.3036 313.841 55.0222 311.733 54.0998L311.332 55.016ZM316.354 58.612L315.617 59.2877C316.89 60.6761 317.855 62.2767 318.514 64.0981L319.454 63.758L320.395 63.4179C319.648 61.354 318.547 59.5239 317.092 57.9363L316.354 58.612ZM319.454 63.758L318.521 64.1156C319.218 65.9382 319.57 67.883 319.57 69.958H320.57H321.57C321.57 67.6516 321.178 65.4632 320.388 63.4004L319.454 63.758ZM320.57 69.958H319.57C319.57 70.4698 319.551 71.0039 319.511 71.5608L320.508 71.632L321.506 71.7032C321.549 71.1027 321.57 70.5209 321.57 69.958H320.57ZM320.508 71.632L319.511 71.5608C319.473 72.0892 319.398 72.5686 319.29 73.0015L320.26 73.244L321.23 73.4865C321.37 72.9274 321.461 72.3321 321.506 71.7032L320.508 71.632ZM320.26 73.244V72.244H293.538V73.244V74.244H320.26V73.244ZM293.538 73.244H294.538V67.664H293.538H292.538V73.244H293.538ZM293.538 67.664V68.664H316.292V67.664V66.664H293.538V67.664ZM316.292 67.664L315.688 66.8676L312.34 69.4096L312.944 70.206L313.549 71.0024L316.897 68.4604L316.292 67.664ZM312.944 70.206L313.924 70.406C314.371 68.218 314.227 66.2009 313.423 64.4036L312.51 64.812L311.598 65.2204C312.199 66.5644 312.345 68.1433 311.965 70.006L312.944 70.206ZM312.51 64.812L313.436 64.4324C312.7 62.6399 311.537 61.2153 309.954 60.1904L309.41 61.03L308.867 61.8696C310.094 62.6634 310.998 63.76 311.585 65.1916L312.51 64.812ZM309.41 61.03L309.982 60.2096C308.431 59.1283 306.614 58.604 304.574 58.604V59.604V60.604C306.255 60.604 307.662 61.0303 308.839 61.8504L309.41 61.03ZM304.574 59.604V58.604C302.534 58.604 300.687 59.1284 299.065 60.1943L299.614 61.03L300.164 61.8657C301.435 61.0303 302.894 60.604 304.574 60.604V59.604ZM299.614 61.03L299.082 60.1834C297.451 61.209 296.212 62.6923 295.355 64.5858L296.266 64.998L297.177 65.4102C297.892 63.8317 298.885 62.6697 300.147 61.8766L299.614 61.03ZM296.266 64.998L295.359 64.5775C294.485 66.4646 294.165 68.7094 294.339 71.2656L295.336 71.198L296.334 71.1304C296.177 68.8092 296.478 66.9207 297.174 65.4185L296.266 64.998ZM295.336 71.198L294.34 71.1075C294.121 73.5243 294.445 75.6981 295.368 77.5884L296.266 77.15L297.165 76.7116C296.434 75.2126 296.139 73.4184 296.332 71.2885L295.336 71.198ZM296.266 77.15L295.376 77.6059C296.322 79.4525 297.642 80.9152 299.334 81.9673L299.862 81.118L300.39 80.2687C299.024 79.4195 297.947 78.2369 297.156 76.6941L296.266 77.15ZM299.862 81.118L299.345 81.9735C301.084 83.0263 303.043 83.544 305.194 83.544V82.544V81.544C303.378 81.544 301.782 81.111 300.38 80.2625L299.862 81.118ZM305.194 82.544V83.544C307.372 83.544 309.285 83.0538 310.884 82.0196L310.34 81.18L309.797 80.3404C308.585 81.1249 307.068 81.544 305.194 81.544V82.544ZM310.34 81.18L310.873 82.0266C312.455 81.0322 313.708 79.7352 314.619 78.1421L313.75 77.646L312.882 77.1499C312.139 78.4501 311.119 79.5092 309.808 80.3334L310.34 81.18ZM313.75 77.646L313.311 78.5443L319.015 81.3343L319.454 80.436L319.894 79.5377L314.19 76.7477L313.75 77.646ZM319.454 80.436L318.533 80.0479C317.934 81.4703 316.991 82.7799 315.681 83.975L316.354 84.714L317.028 85.453C318.528 84.0854 319.652 82.543 320.376 80.8241L319.454 80.436ZM316.354 84.714L315.682 83.9741C314.421 85.1203 312.878 86.0509 311.037 86.7561L311.394 87.69L311.752 88.6239C313.796 87.8411 315.56 86.7877 317.027 85.4539L316.354 84.714ZM311.394 87.69L311.048 86.752C309.27 87.409 307.302 87.744 305.132 87.744V88.744V89.744C307.51 89.744 309.716 89.3763 311.741 88.628L311.394 87.69ZM341.954 88L341.01 87.6682L340.542 89H341.954V88ZM358.198 41.81V40.81H357.489L357.254 41.4782L358.198 41.81ZM367.25 41.81L368.193 41.4782L367.958 40.81H367.25V41.81ZM383.494 88V89H384.905L384.437 87.6682L383.494 88ZM375.682 88L374.735 88.323L374.966 89H375.682V88ZM372.148 77.646L373.094 77.323L372.863 76.646H372.148V77.646ZM353.362 77.646V76.646H352.65L352.417 77.3179L353.362 77.646ZM349.766 88V89H350.477L350.71 88.3281L349.766 88ZM355.47 71.136L354.524 70.8111L354.069 72.136H355.47V71.136ZM369.916 71.136V72.136H371.31L370.863 70.8154L369.916 71.136ZM361.732 46.956V45.956H360.337L360.784 47.2766L361.732 46.956ZM363.778 46.956L364.723 47.2809L365.179 45.956H363.778V46.956ZM341.954 88L342.897 88.3318L359.141 42.1418L358.198 41.81L357.254 41.4782L341.01 87.6682L341.954 88ZM358.198 41.81V42.81H367.25V41.81V40.81H358.198V41.81ZM367.25 41.81L366.306 42.1418L382.55 88.3318L383.494 88L384.437 87.6682L368.193 41.4782L367.25 41.81ZM383.494 88V87H375.682V88V89H383.494V88ZM375.682 88L376.628 87.677L373.094 77.323L372.148 77.646L371.201 77.969L374.735 88.323L375.682 88ZM372.148 77.646V76.646H353.362V77.646V78.646H372.148V77.646ZM353.362 77.646L352.417 77.3179L348.821 87.6719L349.766 88L350.71 88.3281L354.306 77.9741L353.362 77.646ZM349.766 88V87H341.954V88V89H349.766V88ZM355.47 71.136V72.136H369.916V71.136V70.136H355.47V71.136ZM369.916 71.136L370.863 70.8154L362.679 46.6354L361.732 46.956L360.784 47.2766L368.968 71.4566L369.916 71.136ZM361.732 46.956V47.956H363.778V46.956V45.956H361.732V46.956ZM363.778 46.956L362.832 46.6311L354.524 70.8111L355.47 71.136L356.415 71.4609L364.723 47.2809L363.778 46.956ZM387.051 88H386.051V89H387.051V88ZM387.051 54.458V53.458H386.051V54.458H387.051ZM394.057 54.458H395.057V53.458H394.057V54.458ZM394.057 88V89H395.057V88H394.057ZM387.051 49.87H386.051V50.87H387.051V49.87ZM387.051 41.81V40.81H386.051V41.81H387.051ZM394.057 41.81H395.057V40.81H394.057V41.81ZM394.057 49.87V50.87H395.057V49.87H394.057ZM387.051 88H388.051V54.458H387.051H386.051V88H387.051ZM387.051 54.458V55.458H394.057V54.458V53.458H387.051V54.458ZM394.057 54.458H393.057V88H394.057H395.057V54.458H394.057ZM394.057 88V87H387.051V88V89H394.057V88ZM387.051 49.87H388.051V41.81H387.051H386.051V49.87H387.051ZM387.051 41.81V42.81H394.057V41.81V40.81H387.051V41.81ZM394.057 41.81H393.057V49.87H394.057H395.057V41.81H394.057ZM394.057 49.87V48.87H387.051V49.87V50.87H394.057V49.87Z" fill="#552ACB" fill-opacity="0.5" mask="url(#path-1-outside-1_1_323)"/>
</svg>
