<svg width="25" height="25" viewBox="0 0 25 25" fill="none" xmlns="http://www.w3.org/2000/svg">
<path fill-rule="evenodd" clip-rule="evenodd" d="M8.76904 21.4369L1.37624 15.6616C-0.181904 14.4444 -0.458272 12.1945 0.758955 10.6364C1.97618 9.07821 4.22606 8.80185 5.78421 10.0191L13.177 15.7944C14.1938 15.7769 15.223 16.0947 16.0868 16.7695C18.0902 18.3345 18.4455 21.2272 16.8805 23.2306C15.3155 25.2339 12.4228 25.5892 10.4194 24.0242C9.55562 23.3494 8.9982 22.4277 8.76904 21.4369ZM8.88764 18.9335C9.04941 18.4509 9.2946 17.9871 9.6258 17.5632C9.957 17.1392 10.3477 16.7891 10.7768 16.5153L4.52479 11.6312C3.85701 11.1096 2.89278 11.228 2.37111 11.8958C1.84944 12.5636 1.96788 13.5278 2.63566 14.0495L8.88764 18.9335Z" fill="url(#paint0_linear_1_181)"/>
<path fill-rule="evenodd" clip-rule="evenodd" d="M8.47941 8.23055C9.34324 8.90538 10.3724 9.22316 11.3892 9.20572L18.782 14.981C20.3402 16.1982 22.59 15.9218 23.8073 14.3637C25.0245 12.8055 24.7481 10.5557 23.19 9.33844L15.7972 3.56318C15.568 2.57238 15.0106 1.65069 14.1468 0.975865C12.1435 -0.589141 9.25077 -0.233811 7.68576 1.76952C6.12076 3.77284 6.47609 6.66555 8.47941 8.23055ZM14.9405 7.4369C14.6093 7.86086 14.2186 8.21101 13.7895 8.48477L20.0414 13.3688C20.7092 13.8905 21.6734 13.772 22.1951 13.1043C22.7168 12.4365 22.5983 11.4723 21.9306 10.9506L15.6786 6.06655C15.5168 6.54915 15.2716 7.01294 14.9405 7.4369Z" fill="url(#paint1_linear_1_181)"/>
<path d="M8.79427 7.82752C9.56239 8.42757 10.4762 8.70948 11.3801 8.69406L11.5612 8.69103L19.0969 14.578C20.4324 15.6213 22.3609 15.3844 23.4043 14.0489C24.4476 12.7133 24.2107 10.7848 22.8752 9.7415L15.3394 3.85457L15.2986 3.67812C15.0948 2.79741 14.6001 1.97896 13.8319 1.3789C12.0512 -0.0122131 9.47992 0.303636 8.0888 2.08437C6.69768 3.86511 7.01353 6.4364 8.79427 7.82752ZM13.5146 8.05327C13.8953 7.81033 14.2425 7.49953 14.5374 7.12205C14.8323 6.74457 15.0498 6.33247 15.1934 5.90426L15.4237 5.21841L22.2454 10.5476C23.1358 11.2431 23.2937 12.5288 22.5982 13.4191C21.9026 14.3095 20.617 14.4674 19.7266 13.7719L12.9049 8.44271L13.5146 8.05327ZM10.7343 23.6212C12.515 25.0123 15.0863 24.6964 16.4774 22.9157C17.8686 21.135 17.5527 18.5637 15.772 17.1726C15.0039 16.5725 14.09 16.2906 13.1862 16.306L13.0051 16.309L5.46935 10.4221C4.1338 9.37878 2.20533 9.61566 1.16199 10.9512C0.118656 12.2868 0.355543 14.2152 1.69109 15.2586L9.22681 21.1455L9.2677 21.3219C9.47149 22.2027 9.96618 23.0211 10.7343 23.6212ZM2.3208 14.4525C1.43044 13.7569 1.27251 12.4713 1.96807 11.5809C2.66363 10.6906 3.94927 10.5326 4.83964 11.2282L11.6614 16.5574L11.0517 16.9468C10.6709 17.1897 10.3237 17.5005 10.0288 17.878C9.73395 18.2555 9.51642 18.6676 9.37284 19.0958L9.14254 19.7817L2.3208 14.4525Z" stroke="white" stroke-opacity="0.2"/>
<defs>
<linearGradient id="paint0_linear_1_181" x1="-7.85177" y1="16.3131" x2="30.7236" y2="5.88077" gradientUnits="userSpaceOnUse">
<stop stop-color="#F5F1FF"/>
<stop offset="1" stop-color="#6633EE"/>
</linearGradient>
<linearGradient id="paint1_linear_1_181" x1="-7.85177" y1="16.3131" x2="30.7236" y2="5.88077" gradientUnits="userSpaceOnUse">
<stop stop-color="#F5F1FF"/>
<stop offset="1" stop-color="#6633EE"/>
</linearGradient>
</defs>
</svg>
