<svg width="22" height="22" viewBox="0 0 22 22" fill="none" xmlns="http://www.w3.org/2000/svg">
<path fill-rule="evenodd" clip-rule="evenodd" d="M19.6681 4.22858C15.9282 -0.558669 9.01569 -1.40778 4.22844 2.33203C-0.558805 6.07185 -1.40792 12.9844 2.3319 17.7716C6.07171 22.5589 12.9843 23.408 17.7715 19.6682C22.5588 15.9284 23.4079 9.01583 19.6681 4.22858ZM7.95012 7.4969L16.122 6.99873L12.182 10.0767L14.6315 13.2123C14.9349 13.6007 15.0866 13.7949 15.0885 13.9639C15.0902 14.1111 15.0269 14.2515 14.9156 14.3478C14.7877 14.4583 14.5417 14.4733 14.0498 14.5033L5.87791 15.0014L9.81795 11.9235L7.36839 8.78786C7.06498 8.39947 6.91327 8.20527 6.91137 8.03628C6.90971 7.8891 6.97299 7.74867 7.08435 7.65241C7.2122 7.54189 7.45817 7.52689 7.95012 7.4969Z" fill="url(#paint0_linear_1_183)"/>
<path d="M19.2741 4.53638C22.8439 9.10602 22.0334 15.7044 17.4637 19.2742C12.8941 22.844 6.29572 22.0335 2.7259 17.4638C-0.843923 12.8942 -0.033406 6.29586 4.53624 2.72604C9.10589 -0.843787 15.7042 -0.0332699 19.2741 4.53638ZM16.0915 6.49967L7.91922 6.99782C7.68336 7.01219 7.47161 7.02475 7.30473 7.05034C7.14338 7.0751 6.93202 7.12376 6.7575 7.27462C6.53489 7.46713 6.4081 7.7476 6.41141 8.04189C6.41401 8.27265 6.51806 8.46355 6.60642 8.60083C6.69781 8.74277 6.82881 8.9093 6.97421 9.09543L9.11616 11.8373L4.30193 15.5982L5.90845 15.5006L14.0807 15.0024C14.3166 14.988 14.5284 14.9755 14.6952 14.9499C14.8566 14.9251 15.0679 14.8765 15.2425 14.7256C15.465 14.5331 15.5918 14.2526 15.5885 13.9583C15.5859 13.7276 15.4819 13.5367 15.3935 13.3994C15.3022 13.2575 15.1711 13.0909 15.0257 12.9048L12.8838 10.1629L17.698 6.40203L16.0915 6.49967Z" stroke="white" stroke-opacity="0.19"/>
<defs>
<linearGradient id="paint0_linear_1_183" x1="12.1128" y1="2.62643" x2="24.5149" y2="27.7217" gradientUnits="userSpaceOnUse">
<stop stop-color="#FFB366"/>
<stop offset="0.489583" stop-color="#E9766F"/>
<stop offset="1" stop-color="#C04350"/>
</linearGradient>
</defs>
</svg>
