<svg width="62" height="63" viewBox="0 0 62 63" fill="none" xmlns="http://www.w3.org/2000/svg">
<g clip-path="url(#clip0_2021_637)">
<path d="M3 31.5C3 16.036 15.536 3.5 31 3.5C46.464 3.5 59 16.036 59 31.5C59 46.964 46.464 59.5 31 59.5C15.536 59.5 3 46.964 3 31.5Z" fill="url(#paint0_radial_2021_637)"/>
<g filter="url(#filter0_dd_2021_637)">
<path d="M31 19.5V19.5C33.0572 25.0595 37.4405 29.4428 43 31.5V31.5V31.5C37.4405 33.5572 33.0572 37.9405 31 43.5V43.5V43.5C28.9428 37.9405 24.5595 33.5572 19 31.5V31.5V31.5C24.5595 29.4428 28.9428 25.0595 31 19.5V19.5Z" fill="white" fill-opacity="0.05"/>
<path d="M31 19.5V19.5C33.0572 25.0595 37.4405 29.4428 43 31.5V31.5V31.5C37.4405 33.5572 33.0572 37.9405 31 43.5V43.5V43.5C28.9428 37.9405 24.5595 33.5572 19 31.5V31.5V31.5C24.5595 29.4428 28.9428 25.0595 31 19.5V19.5Z" fill="#FD8240"/>
</g>
</g>
<path d="M31 2C47.2924 2 60.5 15.2076 60.5 31.5C60.5 47.7924 47.2924 61 31 61C14.7076 61 1.5 47.7924 1.5 31.5C1.5 15.2076 14.7076 2 31 2Z" stroke="#16172D" stroke-width="3"/>
<defs>
<filter id="filter0_dd_2021_637" x="6.01562" y="17.3359" width="49.9688" height="49.9688" filterUnits="userSpaceOnUse" color-interpolation-filters="sRGB">
<feFlood flood-opacity="0" result="BackgroundImageFix"/>
<feColorMatrix in="SourceAlpha" type="matrix" values="0 0 0 0 0 0 0 0 0 0 0 0 0 0 0 0 0 0 127 0" result="hardAlpha"/>
<feMorphology radius="2.16406" operator="erode" in="SourceAlpha" result="effect1_dropShadow_2021_637"/>
<feOffset dy="4.32812"/>
<feGaussianBlur stdDeviation="3.24609"/>
<feColorMatrix type="matrix" values="0 0 0 0 0 0 0 0 0 0 0 0 0 0 0 0 0 0 0.05 0"/>
<feBlend mode="normal" in2="BackgroundImageFix" result="effect1_dropShadow_2021_637"/>
<feColorMatrix in="SourceAlpha" type="matrix" values="0 0 0 0 0 0 0 0 0 0 0 0 0 0 0 0 0 0 127 0" result="hardAlpha"/>
<feMorphology radius="3.24609" operator="erode" in="SourceAlpha" result="effect2_dropShadow_2021_637"/>
<feOffset dy="10.8203"/>
<feGaussianBlur stdDeviation="8.11523"/>
<feColorMatrix type="matrix" values="0 0 0 0 0 0 0 0 0 0 0 0 0 0 0 0 0 0 0.1 0"/>
<feBlend mode="normal" in2="effect1_dropShadow_2021_637" result="effect2_dropShadow_2021_637"/>
<feBlend mode="normal" in="SourceGraphic" in2="effect2_dropShadow_2021_637" result="shape"/>
</filter>
<radialGradient id="paint0_radial_2021_637" cx="0" cy="0" r="1" gradientUnits="userSpaceOnUse" gradientTransform="translate(-134.835 163.5) rotate(-39.5138) scale(251.468)">
<stop stop-color="#FD8240"/>
<stop offset="1" stop-color="white"/>
</radialGradient>
<clipPath id="clip0_2021_637">
<path d="M3 31.5C3 16.036 15.536 3.5 31 3.5C46.464 3.5 59 16.036 59 31.5C59 46.964 46.464 59.5 31 59.5C15.536 59.5 3 46.964 3 31.5Z" fill="white"/>
</clipPath>
</defs>
</svg>
