<svg width="26" height="24" viewBox="0 0 26 24" fill="none" xmlns="http://www.w3.org/2000/svg">
<path fill-rule="evenodd" clip-rule="evenodd" d="M9.82097 1.3516C8.19507 2.17737 6.61466 3.08982 5.08656 4.08501C4.68018 4.35216 4.34464 4.71416 4.10736 5.13868C3.87008 5.5632 3.73855 6.03863 3.7239 6.52474L3.66795 8.11974C3.65808 8.35379 3.59711 8.58285 3.48932 8.79084C3.38153 8.99882 3.22953 9.1807 3.04399 9.32371C2.72915 9.57084 2.41726 9.82102 2.10973 10.0746C0.956422 11.0245 0.713104 12.6552 1.44174 13.9172L5.77753 21.427C6.18695 22.1362 6.8613 22.6536 7.65224 22.8655C8.44318 23.0775 9.28591 22.9665 9.99505 22.5571L23.364 14.8385C24.0732 14.4291 24.5906 13.7547 24.8026 12.9638C25.0145 12.1729 24.9035 11.3301 24.4941 10.621L20.1583 3.11119C19.4297 1.84916 17.8958 1.24454 16.4966 1.7684C16.1232 1.90792 15.7506 2.05293 15.3787 2.20343C14.9298 2.38299 14.4351 2.35966 14.0241 2.14181L12.6147 1.39047C11.753 0.931318 10.7096 0.90035 9.82097 1.3516ZM7.21541 9.94647C6.84453 11.3306 7.03869 12.8054 7.75517 14.0464C8.47166 15.2874 9.65177 16.1929 11.0359 16.5638C12.4201 16.9347 13.8948 16.7405 15.1358 16.024C16.3768 15.3075 17.2824 14.1274 17.6532 12.7433C18.0241 11.3591 17.83 9.88435 17.1135 8.64336C16.397 7.40237 15.2169 6.49684 13.8327 6.12596C12.4486 5.75508 10.9738 5.94924 9.73281 6.66572C8.49182 7.3822 7.58629 8.56232 7.21541 9.94647ZM17.7727 6.18311C18.2649 5.89892 18.4335 5.26951 18.1494 4.77727C17.8652 4.28504 17.2357 4.11639 16.7435 4.40058C16.2513 4.68477 16.0826 5.31419 16.3668 5.80642C16.651 6.29865 17.2804 6.4673 17.7727 6.18311Z" fill="white" fill-opacity="0.9"/>
<path d="M4.80606 3.65395C6.34948 2.64879 7.94571 1.72721 9.58792 0.893147C10.6317 0.363097 11.8524 0.40125 12.8563 0.936061L14.2648 1.68722C14.5371 1.83157 14.8736 1.85098 15.1875 1.7255L15.1866 1.726C15.5622 1.57395 15.9387 1.42728 16.316 1.28628L16.6261 1.18617C18.183 0.762095 19.8089 1.47689 20.6039 2.85385L24.9396 10.3635C25.4173 11.1908 25.5468 12.1748 25.2996 13.0975C25.0523 14.0201 24.4484 14.8063 23.6212 15.2839L10.2522 23.0025C9.42501 23.4801 8.44214 23.6099 7.51952 23.3628C6.59676 23.1156 5.80941 22.5114 5.33175 21.6841L0.996075 14.1745C0.14813 12.7057 0.425325 10.795 1.78247 9.67724L2.72663 8.91859L2.72961 8.91571C2.85566 8.81855 2.95931 8.69528 3.03254 8.55398C3.10575 8.41268 3.14659 8.2568 3.1533 8.09781L3.20954 6.50678C3.22704 5.93895 3.38091 5.38363 3.65808 4.8877C3.93534 4.39167 4.32827 3.9679 4.80432 3.65496L4.80606 3.65395ZM9.98995 7.11111C8.86722 7.75932 8.0484 8.8273 7.71281 10.0795C7.37727 11.3318 7.55253 12.6661 8.20066 13.7888C8.84891 14.9116 9.91727 15.7313 11.1696 16.0669C12.4218 16.4022 13.7557 16.2263 14.8784 15.5781C16.001 14.93 16.8204 13.8627 17.156 12.6106C17.4916 11.3583 17.3159 10.0232 16.6677 8.9004C16.0194 7.77773 14.9515 6.95879 13.6993 6.62325C12.447 6.28777 11.1127 6.46289 9.98995 7.11111ZM17.0007 4.84599C16.7546 4.98805 16.6704 5.30283 16.8123 5.54891C16.9544 5.79503 17.2691 5.87936 17.5153 5.73726C17.7614 5.59517 17.8457 5.28046 17.7036 5.03434C17.5614 4.78839 17.2467 4.70394 17.0007 4.84599Z" stroke="black" stroke-opacity="0.1"/>
</svg>
