<svg width="26" height="26" viewBox="0 0 26 26" fill="none" xmlns="http://www.w3.org/2000/svg">
<mask id="path-1-outside-1_1_127" maskUnits="userSpaceOnUse" x="0" y="0" width="26" height="26" fill="black">
<rect fill="white" width="26" height="26"/>
<path fill-rule="evenodd" clip-rule="evenodd" d="M2.17157 2.17157C2.92172 1.42143 3.93913 1 5 1H7C7.26522 1 7.51957 1.10536 7.70711 1.29289C7.89464 1.48043 8 1.73478 8 2C8 2.26522 7.89464 2.51957 7.70711 2.70711C7.51957 2.89464 7.26522 3 7 3H5C4.46957 3 3.96086 3.21071 3.58579 3.58579C3.21071 3.96086 3 4.46957 3 5V7C3 7.26522 2.89464 7.51957 2.70711 7.70711C2.51957 7.89464 2.26522 8 2 8C1.73478 8 1.48043 7.89464 1.29289 7.70711C1.10536 7.51957 1 7.26522 1 7V5C1 3.93913 1.42143 2.92172 2.17157 2.17157ZM18.2929 1.29289C18.4804 1.10536 18.7348 1 19 1H21C22.0609 1 23.0783 1.42143 23.8284 2.17157C24.5786 2.92172 25 3.93913 25 5V7C25 7.26522 24.8946 7.51957 24.7071 7.70711C24.5196 7.89464 24.2652 8 24 8C23.7348 8 23.4804 7.89464 23.2929 7.70711C23.1054 7.51957 23 7.26522 23 7V5C23 4.46957 22.7893 3.96086 22.4142 3.58579C22.0391 3.21071 21.5304 3 21 3H19C18.7348 3 18.4804 2.89464 18.2929 2.70711C18.1054 2.51957 18 2.26522 18 2C18 1.73478 18.1054 1.48043 18.2929 1.29289ZM2.70711 18.2929C2.89464 18.4804 3 18.7348 3 19V21C3 21.5304 3.21071 22.0391 3.58579 22.4142C3.96086 22.7893 4.46957 23 5 23H7C7.26522 23 7.51957 23.1054 7.70711 23.2929C7.89464 23.4804 8 23.7348 8 24C8 24.2652 7.89464 24.5196 7.70711 24.7071C7.51957 24.8946 7.26522 25 7 25H5C3.93913 25 2.92172 24.5786 2.17157 23.8284C1.42143 23.0783 1 22.0609 1 21V19C1 18.7348 1.10536 18.4804 1.29289 18.2929C1.48043 18.1054 1.73478 18 2 18C2.26522 18 2.51957 18.1054 2.70711 18.2929ZM24.7071 18.2929C24.8946 18.4804 25 18.7348 25 19V21C25 22.0609 24.5786 23.0783 23.8284 23.8284C23.0783 24.5786 22.0609 25 21 25H19C18.7348 25 18.4804 24.8946 18.2929 24.7071C18.1054 24.5196 18 24.2652 18 24C18 23.7348 18.1054 23.4804 18.2929 23.2929C18.4804 23.1054 18.7348 23 19 23H21C21.5304 23 22.0391 22.7893 22.4142 22.4142C22.7893 22.0391 23 21.5304 23 21V19C23 18.7348 23.1054 18.4804 23.2929 18.2929C23.4804 18.1054 23.7348 18 24 18C24.2652 18 24.5196 18.1054 24.7071 18.2929ZM13.0003 5.39648C13.3588 5.39648 13.6672 5.65023 13.7363 6.00204C14.3549 9.15395 16.8295 11.6534 19.8804 12.2667C20.2307 12.3371 20.4826 12.6448 20.4826 13.002C20.4826 13.3592 20.2307 13.6669 19.8804 13.7373C16.829 14.3507 14.3541 16.8467 13.7356 19.998C13.6666 20.3498 13.3582 20.6036 12.9997 20.6036C12.6411 20.6036 12.3327 20.3498 12.2637 19.998C11.6452 16.8466 9.17088 14.3507 6.11952 13.7373C5.76929 13.6669 5.51733 13.3592 5.51733 13.002C5.51733 12.6448 5.76929 12.3371 6.11952 12.2667C9.17049 11.6534 11.6458 9.15387 12.2644 6.00204C12.3334 5.65023 12.6418 5.39648 13.0003 5.39648Z"/>
</mask>
<path fill-rule="evenodd" clip-rule="evenodd" d="M2.17157 2.17157C2.92172 1.42143 3.93913 1 5 1H7C7.26522 1 7.51957 1.10536 7.70711 1.29289C7.89464 1.48043 8 1.73478 8 2C8 2.26522 7.89464 2.51957 7.70711 2.70711C7.51957 2.89464 7.26522 3 7 3H5C4.46957 3 3.96086 3.21071 3.58579 3.58579C3.21071 3.96086 3 4.46957 3 5V7C3 7.26522 2.89464 7.51957 2.70711 7.70711C2.51957 7.89464 2.26522 8 2 8C1.73478 8 1.48043 7.89464 1.29289 7.70711C1.10536 7.51957 1 7.26522 1 7V5C1 3.93913 1.42143 2.92172 2.17157 2.17157ZM18.2929 1.29289C18.4804 1.10536 18.7348 1 19 1H21C22.0609 1 23.0783 1.42143 23.8284 2.17157C24.5786 2.92172 25 3.93913 25 5V7C25 7.26522 24.8946 7.51957 24.7071 7.70711C24.5196 7.89464 24.2652 8 24 8C23.7348 8 23.4804 7.89464 23.2929 7.70711C23.1054 7.51957 23 7.26522 23 7V5C23 4.46957 22.7893 3.96086 22.4142 3.58579C22.0391 3.21071 21.5304 3 21 3H19C18.7348 3 18.4804 2.89464 18.2929 2.70711C18.1054 2.51957 18 2.26522 18 2C18 1.73478 18.1054 1.48043 18.2929 1.29289ZM2.70711 18.2929C2.89464 18.4804 3 18.7348 3 19V21C3 21.5304 3.21071 22.0391 3.58579 22.4142C3.96086 22.7893 4.46957 23 5 23H7C7.26522 23 7.51957 23.1054 7.70711 23.2929C7.89464 23.4804 8 23.7348 8 24C8 24.2652 7.89464 24.5196 7.70711 24.7071C7.51957 24.8946 7.26522 25 7 25H5C3.93913 25 2.92172 24.5786 2.17157 23.8284C1.42143 23.0783 1 22.0609 1 21V19C1 18.7348 1.10536 18.4804 1.29289 18.2929C1.48043 18.1054 1.73478 18 2 18C2.26522 18 2.51957 18.1054 2.70711 18.2929ZM24.7071 18.2929C24.8946 18.4804 25 18.7348 25 19V21C25 22.0609 24.5786 23.0783 23.8284 23.8284C23.0783 24.5786 22.0609 25 21 25H19C18.7348 25 18.4804 24.8946 18.2929 24.7071C18.1054 24.5196 18 24.2652 18 24C18 23.7348 18.1054 23.4804 18.2929 23.2929C18.4804 23.1054 18.7348 23 19 23H21C21.5304 23 22.0391 22.7893 22.4142 22.4142C22.7893 22.0391 23 21.5304 23 21V19C23 18.7348 23.1054 18.4804 23.2929 18.2929C23.4804 18.1054 23.7348 18 24 18C24.2652 18 24.5196 18.1054 24.7071 18.2929ZM13.0003 5.39648C13.3588 5.39648 13.6672 5.65023 13.7363 6.00204C14.3549 9.15395 16.8295 11.6534 19.8804 12.2667C20.2307 12.3371 20.4826 12.6448 20.4826 13.002C20.4826 13.3592 20.2307 13.6669 19.8804 13.7373C16.829 14.3507 14.3541 16.8467 13.7356 19.998C13.6666 20.3498 13.3582 20.6036 12.9997 20.6036C12.6411 20.6036 12.3327 20.3498 12.2637 19.998C11.6452 16.8466 9.17088 14.3507 6.11952 13.7373C5.76929 13.6669 5.51733 13.3592 5.51733 13.002C5.51733 12.6448 5.76929 12.3371 6.11952 12.2667C9.17049 11.6534 11.6458 9.15387 12.2644 6.00204C12.3334 5.65023 12.6418 5.39648 13.0003 5.39648Z" fill="white"/>
<path d="M13.7363 6.00204L14.7176 5.80946L14.7175 5.80931L13.7363 6.00204ZM19.8804 12.2667L19.6833 13.247L19.6834 13.2471L19.8804 12.2667ZM19.8804 13.7373L19.6834 12.7569L19.6833 12.7569L19.8804 13.7373ZM13.7356 19.998L12.7543 19.8054L12.7543 19.8055L13.7356 19.998ZM12.2637 19.998L13.245 19.8055L13.245 19.8054L12.2637 19.998ZM6.11952 13.7373L6.31661 12.7569L6.31659 12.7569L6.11952 13.7373ZM6.11952 12.2667L6.31659 13.247L6.3166 13.247L6.11952 12.2667ZM12.2644 6.00204L13.2457 6.19464L13.2457 6.19451L12.2644 6.00204ZM5 1V0C3.67392 0 2.40215 0.526784 1.46447 1.46447L2.17157 2.17157L2.87868 2.87868C3.44129 2.31607 4.20435 2 5 2V1ZM7 1V0H5V1V2H7V1ZM7.70711 1.29289L8.41421 0.585787C8.03914 0.210713 7.53043 0 7 0V1V2L7 2L7.70711 1.29289ZM8 2H9C9 1.46957 8.78929 0.960859 8.41421 0.585787L7.70711 1.29289L7 2L7 2H8ZM7.70711 2.70711L8.41421 3.41421C8.78929 3.03914 9 2.53043 9 2H8H7L7 2L7.70711 2.70711ZM7 3V4C7.53043 4 8.03914 3.78929 8.41421 3.41421L7.70711 2.70711L7 2L7 2V3ZM5 3V4H7V3V2H5V3ZM3.58579 3.58579L4.29289 4.29289C4.48043 4.10536 4.73478 4 5 4V3V2C4.20435 2 3.44129 2.31607 2.87868 2.87868L3.58579 3.58579ZM3 5H4C4 4.73478 4.10536 4.48043 4.29289 4.29289L3.58579 3.58579L2.87868 2.87868C2.31607 3.44129 2 4.20435 2 5H3ZM3 7H4V5H3H2V7H3ZM2.70711 7.70711L3.41421 8.41421C3.78929 8.03914 4 7.53043 4 7H3H2L2 7L2.70711 7.70711ZM2 8V9C2.53043 9 3.03914 8.78929 3.41421 8.41421L2.70711 7.70711L2 7L2 7V8ZM1.29289 7.70711L0.585787 8.41421C0.960859 8.78929 1.46957 9 2 9V8V7L2 7L1.29289 7.70711ZM1 7H0C0 7.53043 0.210713 8.03914 0.585787 8.41421L1.29289 7.70711L2 7L2 7H1ZM1 5H0V7H1H2V5H1ZM2.17157 2.17157L1.46447 1.46447C0.526784 2.40215 0 3.67392 0 5H1H2C2 4.20435 2.31607 3.44129 2.87868 2.87868L2.17157 2.17157ZM19 1V0C18.4696 0 17.9609 0.210714 17.5858 0.585787L18.2929 1.29289L19 2L19 2V1ZM21 1V0H19V1V2H21V1ZM23.8284 2.17157L24.5355 1.46447C23.5979 0.526784 22.3261 0 21 0V1V2C21.7956 2 22.5587 2.31607 23.1213 2.87868L23.8284 2.17157ZM25 5H26C26 3.67392 25.4732 2.40215 24.5355 1.46447L23.8284 2.17157L23.1213 2.87868C23.6839 3.44129 24 4.20435 24 5H25ZM25 7H26V5H25H24V7H25ZM24.7071 7.70711L25.4142 8.41421C25.7893 8.03914 26 7.53043 26 7H25H24L24.7071 7.70711ZM24 8V9C24.5304 9 25.0391 8.78929 25.4142 8.41421L24.7071 7.70711L24 7V8ZM23.2929 7.70711L22.5858 8.41421C22.9609 8.78929 23.4696 9 24 9V8V7L23.2929 7.70711ZM23 7H22C22 7.53043 22.2107 8.03914 22.5858 8.41421L23.2929 7.70711L24 7H23ZM23 5H22V7H23H24V5H23ZM22.4142 3.58579L21.7071 4.29289C21.8946 4.48043 22 4.73478 22 5H23H24C24 4.20435 23.6839 3.44129 23.1213 2.87868L22.4142 3.58579ZM21 3V4C21.2652 4 21.5196 4.10536 21.7071 4.29289L22.4142 3.58579L23.1213 2.87868C22.5587 2.31607 21.7957 2 21 2V3ZM19 3V4H21V3V2H19V3ZM18.2929 2.70711L17.5858 3.41421C17.9609 3.78929 18.4696 4 19 4V3V2L19 2L18.2929 2.70711ZM18 2H17C17 2.53044 17.2107 3.03914 17.5858 3.41421L18.2929 2.70711L19 2L19 2H18ZM18.2929 1.29289L17.5858 0.585787C17.2107 0.960857 17 1.46956 17 2H18H19L19 2L18.2929 1.29289ZM3 19H4C4 18.4696 3.78929 17.9609 3.41421 17.5858L2.70711 18.2929L2 19L2 19H3ZM3 21H4V19H3H2V21H3ZM3.58579 22.4142L4.29289 21.7071C4.10536 21.5196 4 21.2652 4 21H3H2C2 21.7957 2.31607 22.5587 2.87868 23.1213L3.58579 22.4142ZM5 23V22C4.73478 22 4.48043 21.8946 4.29289 21.7071L3.58579 22.4142L2.87868 23.1213C3.44129 23.6839 4.20435 24 5 24V23ZM7 23V22H5V23V24H7V23ZM7.70711 23.2929L8.41421 22.5858C8.03914 22.2107 7.53043 22 7 22V23V24L7.70711 23.2929ZM8 24H9C9 23.4696 8.78929 22.9609 8.41421 22.5858L7.70711 23.2929L7 24H8ZM7.70711 24.7071L8.41421 25.4142C8.78929 25.0391 9 24.5304 9 24H8H7L7.70711 24.7071ZM7 25V26C7.53043 26 8.03914 25.7893 8.41421 25.4142L7.70711 24.7071L7 24V25ZM5 25V26H7V25V24H5V25ZM2.17157 23.8284L1.46447 24.5355C2.40215 25.4732 3.67392 26 5 26V25V24C4.20435 24 3.44129 23.6839 2.87868 23.1213L2.17157 23.8284ZM1 21H0C0 22.3261 0.526784 23.5979 1.46447 24.5355L2.17157 23.8284L2.87868 23.1213C2.31607 22.5587 2 21.7956 2 21H1ZM1 19H0V21H1H2V19H1ZM1.29289 18.2929L0.585787 17.5858C0.210714 17.9609 0 18.4696 0 19H1H2L2 19L1.29289 18.2929ZM2 18V17C1.46956 17 0.960857 17.2107 0.585787 17.5858L1.29289 18.2929L2 19L2 19V18ZM2.70711 18.2929L3.41421 17.5858C3.03914 17.2107 2.53044 17 2 17V18V19L2 19L2.70711 18.2929ZM25 19H26C26 18.4696 25.7893 17.9609 25.4142 17.5858L24.7071 18.2929L24 19V19H25ZM25 21H26V19H25H24V21H25ZM23.8284 23.8284L24.5355 24.5355C25.4732 23.5979 26 22.3261 26 21H25H24C24 21.7957 23.6839 22.5587 23.1213 23.1213L23.8284 23.8284ZM21 25V26C22.3261 26 23.5979 25.4732 24.5355 24.5355L23.8284 23.8284L23.1213 23.1213C22.5587 23.6839 21.7957 24 21 24V25ZM19 25V26H21V25V24H19V25ZM18.2929 24.7071L17.5858 25.4142C17.9609 25.7893 18.4696 26 19 26V25V24H19L18.2929 24.7071ZM18 24H17C17 24.5304 17.2107 25.0391 17.5858 25.4142L18.2929 24.7071L19 24H19H18ZM18.2929 23.2929L17.5858 22.5858C17.2107 22.9609 17 23.4696 17 24H18H19H19L18.2929 23.2929ZM19 23V22C18.4696 22 17.9609 22.2107 17.5858 22.5858L18.2929 23.2929L19 24H19V23ZM21 23V22H19V23V24H21V23ZM22.4142 22.4142L21.7071 21.7071C21.5196 21.8946 21.2652 22 21 22V23V24C21.7957 24 22.5587 23.6839 23.1213 23.1213L22.4142 22.4142ZM23 21H22C22 21.2652 21.8946 21.5196 21.7071 21.7071L22.4142 22.4142L23.1213 23.1213C23.6839 22.5587 24 21.7957 24 21H23ZM23 19H22V21H23H24V19H23ZM23.2929 18.2929L22.5858 17.5858C22.2107 17.9609 22 18.4696 22 19H23H24V19L23.2929 18.2929ZM24 18V17C23.4696 17 22.9609 17.2107 22.5858 17.5858L23.2929 18.2929L24 19V19V18ZM24.7071 18.2929L25.4142 17.5858C25.0391 17.2107 24.5304 17 24 17V18V19V19L24.7071 18.2929ZM13.7363 6.00204L14.7175 5.80931C14.5563 4.98857 13.8369 4.39648 13.0003 4.39648V5.39648V6.39648C12.8807 6.39648 12.778 6.3119 12.755 6.19478L13.7363 6.00204ZM19.8804 12.2667L20.0775 11.2863C17.4328 10.7546 15.2601 8.57388 14.7176 5.80946L13.7363 6.00204L12.755 6.19463C13.4497 9.73402 16.2262 12.5521 19.6833 13.247L19.8804 12.2667ZM20.4826 13.002H21.4826C21.4826 12.1686 20.8948 11.4505 20.0774 11.2863L19.8804 12.2667L19.6834 13.2471C19.5665 13.2236 19.4826 13.1209 19.4826 13.002H20.4826ZM19.8804 13.7373L20.0774 14.7177C20.8948 14.5534 21.4826 13.8353 21.4826 13.002H20.4826H19.4826C19.4826 12.883 19.5665 12.7803 19.6834 12.7569L19.8804 13.7373ZM13.7356 19.998L14.7169 20.1905C15.2592 17.4275 17.4315 15.2495 20.0775 14.7176L19.8804 13.7373L19.6833 12.7569C16.2264 13.4518 13.449 16.2658 12.7543 19.8054L13.7356 19.998ZM12.9997 20.6036V21.6036C13.8363 21.6036 14.5559 21.0113 14.7169 20.1904L13.7356 19.998L12.7543 19.8055C12.7773 19.6882 12.8801 19.6036 12.9997 19.6036V20.6036ZM12.2637 19.998L11.2824 20.1904C11.4434 21.0114 12.1631 21.6036 12.9997 21.6036V20.6036V19.6036C13.1191 19.6036 13.222 19.6881 13.245 19.8055L12.2637 19.998ZM6.11952 13.7373L5.92244 14.7176C8.56823 15.2495 10.7401 17.4273 11.2824 20.1905L12.2637 19.998L13.245 19.8054C12.5503 16.2658 9.77354 13.4518 6.31661 12.7569L6.11952 13.7373ZM5.51733 13.002H4.51733C4.51733 13.8354 5.10519 14.5534 5.92245 14.7176L6.11952 13.7373L6.31659 12.7569C6.43339 12.7803 6.51733 12.8829 6.51733 13.002H5.51733ZM6.11952 12.2667L5.92245 11.2863C5.10519 11.4505 4.51733 12.1685 4.51733 13.002H5.51733H6.51733C6.51733 13.121 6.43339 13.2236 6.31659 13.247L6.11952 12.2667ZM12.2644 6.00204L11.2831 5.80945C10.7406 8.57368 8.56732 10.7546 5.92245 11.2863L6.11952 12.2667L6.3166 13.247C9.77367 12.5521 12.551 9.73407 13.2457 6.19464L12.2644 6.00204ZM13.0003 5.39648V4.39648C12.1638 4.39648 11.4441 4.98856 11.2831 5.80958L12.2644 6.00204L13.2457 6.19451C13.2227 6.31191 13.1198 6.39648 13.0003 6.39648V5.39648Z" fill="black" fill-opacity="0.1" mask="url(#path-1-outside-1_1_127)"/>
</svg>
