<svg width="26" height="26" viewBox="0 0 26 26" fill="none" xmlns="http://www.w3.org/2000/svg">
<path fill-rule="evenodd" clip-rule="evenodd" d="M20.0463 1.02242C20.4128 1.02242 20.7281 1.28185 20.7988 1.64155C21.1584 3.47394 22.5977 4.92347 24.3619 5.2781C24.7199 5.35009 24.9776 5.66464 24.9776 6.02988C24.9776 6.39513 24.7199 6.70967 24.3619 6.78165C22.5971 7.13642 21.1578 8.58399 20.7984 10.4158C20.7277 10.7755 20.4124 11.0349 20.0459 11.0349C19.6793 11.0349 19.364 10.7755 19.2934 10.4158C18.9339 8.58391 17.4949 7.1364 15.7302 6.78165C15.3722 6.70967 15.1146 6.39513 15.1146 6.02988C15.1146 5.66464 15.3722 5.35009 15.7302 5.2781C17.4945 4.92345 18.9342 3.47384 19.2938 1.64155C19.3644 1.28185 19.6797 1.02242 20.0463 1.02242ZM13.3254 6.02988C13.3254 5.82463 13.3497 5.63566 13.3961 5.44307C10.6347 5.44307 7.87341 5.44307 5.11208 5.44307C2.85342 5.44307 1.02242 7.27408 1.02242 9.53274V20.7793C1.02242 23.038 2.8526 24.869 5.11126 24.869C8.36822 24.869 12.9143 24.869 16.222 24.869C18.4806 24.869 20.3077 23.038 20.3077 20.7793V12.8108C20.2214 12.8196 20.1341 12.8241 20.0459 12.8241C18.824 12.8241 17.773 11.9594 17.5377 10.7604C17.3144 9.62271 16.4164 8.74461 15.3776 8.53579C14.184 8.29584 13.3254 7.24735 13.3254 6.02988ZM16.1371 17.4603L18.4035 20.0267V20.7793C18.4035 21.9087 17.488 22.8242 16.3587 22.8242H5.11209C3.98276 22.8242 3.06726 21.9087 3.06726 20.7793V16.9171L5.48085 13.7086C5.48639 13.7012 5.49211 13.694 5.49803 13.6869C5.61862 13.5435 5.7526 13.4131 5.89957 13.2961C5.90451 13.2921 5.90953 13.2883 5.91464 13.2845C6.86306 12.5851 8.20593 12.7815 8.92223 13.702L8.92375 13.7039L12.1889 17.942L12.9061 17.2438L12.914 17.2362C12.9624 17.1889 13.0434 17.1099 13.1458 17.0412C14.0913 16.3531 15.4223 16.549 16.1371 17.4603Z" fill="white" fill-opacity="0.9"/>
<path d="M14.0453 4.93236L13.8935 5.56239C13.856 5.71835 13.8366 5.86734 13.8366 6.02967C13.8366 7.00356 14.5234 7.84248 15.478 8.03456C16.7235 8.28492 17.7766 9.32507 18.0391 10.6615C18.2274 11.6207 19.0685 12.3129 20.046 12.3129C20.1167 12.3129 20.1866 12.309 20.2556 12.302L20.8188 12.245V20.7798C20.8185 23.32 18.7634 25.3807 16.2219 25.3807H5.11109C2.57021 25.3806 0.511478 23.3204 0.511209 20.7798V9.53324C0.511209 6.99225 2.57109 4.93236 5.11209 4.93236H14.0453ZM8.51881 14.0163C7.97098 13.3123 6.9413 13.1629 6.21837 13.6958C6.09803 13.7917 5.98732 13.8973 5.88888 14.0143L5.88988 14.0153L3.57846 17.0875V20.7798C3.57873 21.6266 4.26526 22.3135 5.11209 22.3135H16.3587C17.2057 22.3135 17.8923 21.6258 17.8923 20.7788V20.2207L15.7536 17.7984L15.7436 17.7875L15.7346 17.7755C15.1879 17.0787 14.1668 16.9306 13.4462 17.455L13.4392 17.46L13.4312 17.466C13.3715 17.506 13.3192 17.5551 13.2715 17.6018L13.2705 17.6027L13.2625 17.6097L12.5456 18.3087L12.1342 18.709L11.7838 18.2537L8.51881 14.0163ZM20.046 0.511209C20.6567 0.511209 21.1821 0.943429 21.3 1.54261C21.6207 3.17684 22.9065 4.4637 24.4631 4.77661C25.0596 4.89672 25.4884 5.42112 25.4885 6.02967C25.4885 6.63827 25.0596 7.16258 24.4631 7.28273C22.9056 7.59584 21.6205 8.88146 21.3 10.5147C21.1821 11.114 20.6567 11.5461 20.046 11.5461C19.4352 11.5461 18.9098 11.114 18.7919 10.5147V10.5137C18.4712 8.88064 17.1869 7.59587 15.6298 7.28273C15.033 7.16274 14.6034 6.63833 14.6034 6.02967C14.6035 5.42109 15.0331 4.89659 15.6298 4.77661L15.9184 4.70671C17.3433 4.3014 18.4913 3.07444 18.7919 1.54261C18.9098 0.943469 19.4353 0.511352 20.046 0.511209Z" stroke="black" stroke-opacity="0.1"/>
</svg>
