<svg width="26" height="26" viewBox="0 0 26 26" fill="none" xmlns="http://www.w3.org/2000/svg">
<path d="M15.3514 2.81441C14.9127 2.56117 14.3915 2.49254 13.9022 2.62363C13.413 2.75472 12.9959 3.07478 12.7427 3.51342C12.4894 3.95205 12.4208 4.47332 12.5519 4.96255C12.683 5.45178 13.003 5.86889 13.4417 6.12214L15.0955 7.077L12.8039 11.0463L5.85764 7.03586C5.419 6.78262 5.09894 6.3655 4.96785 5.87627C4.83676 5.38704 4.90539 4.86577 5.15863 4.42714L5.54058 3.7656C6.06817 2.85178 7.23636 2.53951 8.1493 3.06659L10.9657 4.69265C10.9047 3.80799 11.1879 2.93397 11.7561 2.25321C12.3244 1.57246 13.1337 1.13764 14.0151 1.03961C14.8964 0.941588 15.7815 1.18794 16.4855 1.7272C17.1894 2.26646 17.6577 3.05689 17.7926 3.93334C18.619 3.61189 19.5377 3.62225 20.3567 3.96227C21.1757 4.30228 21.8316 4.94563 22.1874 5.75789C22.5431 6.57016 22.5713 7.48849 22.2658 8.32099C21.9604 9.15349 21.3451 9.83576 20.5484 10.2252L24.0264 12.2332C24.9393 12.7603 25.2525 13.929 24.7254 14.842L24.3434 15.5035C23.8159 16.4173 22.6477 16.7296 21.7347 16.2025L14.127 11.8102L16.4186 7.84088L18.0725 8.79574C18.3996 8.9846 18.7753 9.07221 19.1522 9.04751C19.5291 9.0228 19.8902 8.88689 20.1899 8.65696C20.4896 8.42703 20.7143 8.1134 20.8357 7.75574C20.9571 7.39807 20.9697 7.01244 20.872 6.64761C20.7742 6.28277 20.5705 5.95512 20.2865 5.70608C20.0025 5.45704 19.6511 5.2978 19.2766 5.2485C18.9021 5.1992 18.5214 5.26205 18.1827 5.42911C17.8439 5.59616 17.5623 5.85992 17.3735 6.18702L16.4186 7.84088L15.0955 7.077L16.0504 5.42313C16.578 4.50932 16.2643 3.34149 15.3514 2.81441ZM12.04 12.3694L4.76298 8.16798L1.32549 14.1219C1.02159 14.6482 0.939243 15.2738 1.09655 15.8608C1.25386 16.4479 1.63793 16.9485 2.16429 17.2524L7.45666 20.3079L12.04 12.3694ZM13.3631 13.1332L8.77975 21.0718L14.7337 24.5093C15.26 24.8132 15.8855 24.8955 16.4726 24.7382C17.0597 24.5809 17.5602 24.1968 17.8641 23.6705L21.3016 17.7166L13.3631 13.1332Z" fill="white" fill-opacity="0.9"/>
<path d="M12.7356 12.183L7.64302 21.0036L1.90963 17.6934C1.26632 17.322 0.79717 16.7102 0.604899 15.9926C0.412641 15.2751 0.513026 14.5106 0.884423 13.8673L4.57654 7.47238L12.7356 12.183ZM21.9972 17.5302L18.3051 23.9252C17.9337 24.5685 17.3218 25.0376 16.6043 25.2299C15.8868 25.4221 15.1223 25.3218 14.479 24.9504L8.08405 21.2583L13.1766 12.4376L21.9972 17.5302ZM20.552 3.49248C21.4922 3.88288 22.2453 4.62104 22.6537 5.55351C23.0622 6.48611 23.0947 7.54061 22.744 8.49645C22.4971 9.16951 22.0728 9.75598 21.5245 10.2008L24.281 11.7923C25.4375 12.46 25.8341 13.9401 25.1664 15.0966L24.7844 15.7582C24.1161 16.9157 22.6364 17.3112 21.4801 16.6436L13.4313 11.9966L15.7229 8.02734L15.2819 7.77271L12.9902 11.742L5.60297 7.47695C5.04739 7.15618 4.64153 6.62792 4.47548 6.00825C4.30944 5.38858 4.39682 4.72816 4.71757 4.17257L5.09951 3.51103C5.76782 2.35348 7.24754 1.958 8.40389 2.62562L10.4988 3.83511C10.6099 3.13789 10.9057 2.47721 11.3651 1.92683C12.0175 1.14522 12.947 0.64609 13.9589 0.533544C14.9707 0.421038 15.9865 0.704147 16.7946 1.32317C17.4478 1.82349 17.9241 2.51212 18.1646 3.28902C18.9576 3.10887 19.7922 3.17702 20.552 3.49248ZM19.951 6.08913C19.7427 5.9065 19.4846 5.78937 19.21 5.75322C18.9355 5.71709 18.6559 5.76348 18.4075 5.88597C18.1593 6.00848 17.9529 6.20195 17.8145 6.44171L17.1142 7.65454L18.3271 8.35477C18.5668 8.4932 18.8423 8.55756 19.1185 8.53953C19.3949 8.52142 19.6602 8.4218 19.8799 8.25324C20.0997 8.08462 20.2646 7.85414 20.3536 7.59186C20.4426 7.32965 20.4522 7.04679 20.3806 6.77933C20.3089 6.51188 20.1591 6.27173 19.951 6.08913ZM15.0967 3.2555C14.7751 3.06979 14.3926 3.01893 14.0339 3.11506C13.6751 3.2112 13.3694 3.44645 13.1837 3.7681C12.998 4.08976 12.9471 4.4722 13.0432 4.83094C13.1393 5.18969 13.3746 5.49546 13.6963 5.68117L14.9091 6.3814L15.6093 5.16856C15.9962 4.49848 15.7662 3.64204 15.0967 3.2555Z" stroke="black" stroke-opacity="0.1"/>
</svg>
